<svg width="65" height="64" viewBox="0 0 65 64" fill="none" xmlns="http://www.w3.org/2000/svg">
<g id="solar:folder-path-connect-line-duotone">
<g id="Group">
<path id="Vector" opacity="0.5" d="M44.5 20H36.5" stroke="#F96464" stroke-width="3" stroke-linecap="round"/>
<path id="Vector_2" d="M13.832 13.9119C13.832 12.3839 13.832 11.6186 13.9627 10.9813C14.5307 8.17592 16.896 5.98392 19.9147 5.45325C20.6 5.33325 21.424 5.33325 23.072 5.33325C23.792 5.33325 24.1547 5.33325 24.5014 5.36259C25.9947 5.49325 27.416 6.03992 28.5707 6.92792C28.8374 7.13592 29.0934 7.37325 29.6054 7.84525L30.632 8.79992C32.1547 10.2133 32.9174 10.9199 33.8267 11.3919C34.328 11.6506 34.8614 11.8559 35.4107 11.9999C36.416 12.2666 37.4907 12.2666 39.6454 12.2666H40.3414C45.256 12.2666 47.7147 12.2666 49.3094 13.5999C49.456 13.7226 49.5974 13.8533 49.728 13.9893C51.1654 15.4719 51.1654 17.7546 51.1654 22.3173V26.1333C51.1654 32.6693 51.1654 35.9386 48.9787 37.9679C46.792 39.9999 43.272 39.9999 36.232 39.9999H28.7654C21.7254 39.9999 18.2054 39.9999 16.0187 37.9706C13.832 35.9386 13.832 32.6666 13.832 26.1333V13.9119Z" stroke="#F96464" stroke-width="3"/>
<path id="Vector_3" opacity="0.5" d="M59.1654 53.3333H37.832M5.83203 53.3333H27.1654M32.4987 48V40" stroke="#F96464" stroke-width="3" stroke-linecap="round"/>
<path id="Vector_4" d="M32.4974 58.6667C35.4429 58.6667 37.8307 56.2789 37.8307 53.3333C37.8307 50.3878 35.4429 48 32.4974 48C29.5519 48 27.1641 50.3878 27.1641 53.3333C27.1641 56.2789 29.5519 58.6667 32.4974 58.6667Z" stroke="#F96464" stroke-width="3"/>
</g>
</g>
</svg>
