<svg width="65" height="64" viewBox="0 0 65 64" fill="none" xmlns="http://www.w3.org/2000/svg">
<g id="solar:global-line-duotone">
<g id="Group">
<path id="Vector" opacity="0.5" d="M5.83594 31.9999H59.1693M43.1693 31.9999C43.1693 35.5013 42.8919 38.9706 42.3559 42.2052C41.8226 45.4399 41.0359 48.3786 40.0439 50.8559C39.0546 53.3332 37.8786 55.2959 36.5853 56.6372C35.2893 57.9759 33.9026 58.6666 32.5026 58.6666C31.1026 58.6666 29.7159 57.9759 28.4226 56.6372C27.1266 55.2959 25.9506 53.3306 24.9613 50.8559C23.9693 48.3786 23.1826 45.4426 22.6466 42.2052C22.0998 38.8311 21.8287 35.4181 21.8359 31.9999C21.8359 28.4986 22.1106 25.0293 22.6466 21.7946C23.1826 18.5599 23.9693 15.6213 24.9613 13.1439C25.9506 10.6666 27.1266 8.70392 28.4199 7.36258C29.7159 6.02659 31.1026 5.33325 32.5026 5.33325C33.9026 5.33325 35.2893 6.02392 36.5826 7.36258C37.8786 8.70392 39.0546 10.6693 40.0439 13.1439C41.0359 15.6213 41.8226 18.5573 42.3559 21.7946C42.8946 25.0293 43.1693 28.4986 43.1693 31.9999Z" stroke="#F96464" stroke-width="3" stroke-linecap="round"/>
<path id="Vector_2" d="M59.168 32C59.168 35.5021 58.4782 38.9699 57.1381 42.2054C55.7979 45.4409 53.8335 48.3808 51.3572 50.8572C48.8808 53.3335 45.9409 55.2979 42.7054 56.6381C39.4699 57.9782 36.0021 58.668 32.5 58.668C28.9979 58.668 25.5301 57.9782 22.2946 56.6381C19.0591 55.2979 16.1193 53.3335 13.6429 50.8572C11.1666 48.3808 9.2022 45.4409 7.86201 42.2054C6.52182 38.9699 5.83203 35.5021 5.83203 32C5.83203 24.9272 8.64169 18.1441 13.6429 13.1429C18.6441 8.14169 25.4272 5.33203 32.5 5.33203C39.5728 5.33203 46.3559 8.14169 51.3572 13.1429C56.3584 18.1441 59.168 24.9272 59.168 32Z" stroke="#F96464" stroke-width="3"/>
</g>
</g>
</svg>
