<svg width="64" height="64" viewBox="0 0 64 64" fill="none" xmlns="http://www.w3.org/2000/svg">
<g id="solar:money-bag-line-duotone">
<g id="Group">
<path id="Vector" d="M5.33203 37.3333C5.33203 27.2773 5.33203 22.248 8.45736 19.1253C11.58 16 16.6094 16 26.6654 16H37.332C47.388 16 52.4174 16 55.54 19.1253C58.6654 22.248 58.6654 27.2773 58.6654 37.3333C58.6654 47.3893 58.6654 52.4187 55.54 55.5413C52.4174 58.6667 47.388 58.6667 37.332 58.6667H26.6654C16.6094 58.6667 11.58 58.6667 8.45736 55.5413C5.33203 52.4187 5.33203 47.3893 5.33203 37.3333Z" stroke="#F96464" stroke-width="3"/>
<path id="Vector_2" opacity="0.5" d="M42.6654 16C42.6654 10.9707 42.6654 8.45871 41.1027 6.89604C39.54 5.33337 37.028 5.33337 31.9987 5.33337C26.9694 5.33337 24.4574 5.33337 22.8947 6.89604C21.332 8.45871 21.332 10.9707 21.332 16" stroke="#F96464" stroke-width="3"/>
<path id="Vector_3" opacity="0.5" d="M31.9974 46.2214C34.9441 46.2214 37.3307 44.2321 37.3307 41.7787C37.3307 39.3254 34.9441 37.3334 31.9974 37.3334C29.0507 37.3334 26.6641 35.3441 26.6641 32.8881C26.6641 30.4347 29.0507 28.4454 31.9974 28.4454M31.9974 46.2214C29.0507 46.2214 26.6641 44.2321 26.6641 41.7787M31.9974 46.2214V48.0001M31.9974 28.4454V26.6667M31.9974 28.4454C34.9441 28.4454 37.3307 30.4347 37.3307 32.8881" stroke="#F96464" stroke-width="3" stroke-linecap="round"/>
</g>
</g>
</svg>
