<svg width="64" height="64" viewBox="0 0 64 64" fill="none" xmlns="http://www.w3.org/2000/svg">
<g id="solar:mouse-circle-line-duotone">
<g id="Group">
<path id="Vector" d="M21.334 26.6667C21.334 23.8377 22.4578 21.1246 24.4582 19.1242C26.4586 17.1238 29.1717 16 32.0007 16C34.8296 16 37.5427 17.1238 39.5431 19.1242C41.5435 21.1246 42.6673 23.8377 42.6673 26.6667V37.3333C42.6673 40.1623 41.5435 42.8754 39.5431 44.8758C37.5427 46.8762 34.8296 48 32.0007 48C29.1717 48 26.4586 46.8762 24.4582 44.8758C22.4578 42.8754 21.334 40.1623 21.334 37.3333V26.6667Z" stroke="#F96464" stroke-width="3"/>
<path id="Vector_2" d="M22.668 26.6667H41.3346M32.0013 26.6667V16" stroke="#F96464" stroke-width="3" stroke-linecap="round"/>
<path id="Vector_3" opacity="0.5" d="M44.518 5.78133C44.0417 5.54794 43.4921 5.51333 42.9903 5.68511C42.4884 5.8569 42.0754 6.221 41.842 6.69733C41.6086 7.17366 41.574 7.72319 41.7458 8.22504C41.9175 8.72689 42.2817 9.13994 42.758 9.37333L44.518 5.78133ZM26.3047 3.46133C13.19 6.128 3.33398 17.8 3.33398 31.7787H7.33398C7.33398 19.7147 15.8353 9.672 27.0993 7.37866L26.3047 3.46133ZM3.33398 31.7787C3.33398 47.7173 16.1527 60.6667 32.0006 60.6667V56.6667C18.3926 56.6667 7.33398 45.5387 7.33398 31.7787H3.33398ZM32.0006 60.6667C47.8486 60.6667 60.6673 47.7173 60.6673 31.7787H56.6673C56.6673 45.5387 45.6087 56.6667 32.0006 56.6667V60.6667ZM30.0006 10.2667V23.712H34.0006V10.2667H30.0006ZM60.6673 31.7787C60.6673 20.3493 54.0807 10.4667 44.518 5.78133L42.758 9.37333C46.9408 11.4321 50.462 14.6234 52.9209 18.5843C55.3799 22.5452 56.6779 27.1166 56.6673 31.7787H60.6673ZM27.0993 7.37866C28.454 7.104 30.0006 8.24266 30.0006 10.2667H34.0006C34.0006 6.352 30.7233 2.56 26.302 3.46133L27.0993 7.37866Z" fill="#F96464"/>
</g>
</g>
</svg>
