<svg width="64" height="65" viewBox="0 0 64 65" fill="none" xmlns="http://www.w3.org/2000/svg">
<g id="hugeicons:facebook-01">
<g id="Group">
<path id="Vector" d="M6.66602 32.5C6.66602 20.5587 6.66602 14.5854 10.3753 10.876C14.0847 7.16669 20.0553 7.16669 31.9993 7.16669C43.9407 7.16669 49.914 7.16669 53.6233 10.876C57.3327 14.5854 57.3327 20.556 57.3327 32.5C57.3327 44.4414 57.3327 50.4147 53.6233 54.124C49.914 57.8334 43.9434 57.8334 31.9993 57.8334C20.058 57.8334 14.0847 57.8334 10.3753 54.124C6.66602 50.4147 6.66602 44.444 6.66602 32.5Z" stroke="#F96464" stroke-width="3" stroke-linecap="round" stroke-linejoin="round"/>
<path id="Vector_2" d="M45.1381 21.9027H37.2848C35.9474 21.9027 34.6643 22.4314 33.7152 23.3735C32.7661 24.3156 32.228 25.5948 32.2181 26.932L31.9888 57.6387M26.8848 37.8387H39.6928" stroke="#F96464" stroke-width="3" stroke-linecap="round" stroke-linejoin="round"/>
</g>
</g>
</svg>
