<svg width="1440" height="642" viewBox="0 0 1440 642" fill="none" xmlns="http://www.w3.org/2000/svg">
<g opacity="0.1" clip-path="url(#clip0_3152_33)">
<rect width="46.6963" height="838.705" transform="matrix(0.846145 0.532953 -0.113255 0.993566 -31.1719 -182.098)" fill="#F96464"/>
<rect width="46.6963" height="838.705" transform="matrix(0.846145 0.532953 -0.113255 0.993566 50.7949 -182.098)" fill="#F96464"/>
<rect width="46.6963" height="838.705" transform="matrix(0.846145 0.532953 -0.113255 0.993566 132.76 -182.098)" fill="#F96464"/>
<rect width="46.6963" height="838.705" transform="matrix(0.846145 0.532953 -0.113255 0.993566 214.727 -182.098)" fill="#F96464"/>
<rect width="46.6963" height="838.705" transform="matrix(0.846145 0.532953 -0.113255 0.993566 296.691 -182.098)" fill="#F96464"/>
<rect width="46.6963" height="838.705" transform="matrix(0.846145 0.532953 -0.113255 0.993566 378.66 -182.098)" fill="#F96464"/>
<rect width="46.6963" height="838.705" transform="matrix(0.846145 0.532953 -0.113255 0.993566 460.625 -182.098)" fill="#F96464"/>
<rect width="46.6963" height="838.705" transform="matrix(0.846145 0.532953 -0.113255 0.993566 542.59 -182.098)" fill="#F96464"/>
<rect width="46.6963" height="838.705" transform="matrix(0.846145 0.532953 -0.113255 0.993566 624.555 -182.098)" fill="#F96464"/>
<rect width="46.6963" height="838.705" transform="matrix(0.846145 0.532953 -0.113255 0.993566 706.523 -182.098)" fill="#F96464"/>
<rect width="46.6963" height="838.705" transform="matrix(0.846145 0.532953 -0.113255 0.993566 788.488 -182.098)" fill="#F96464"/>
<rect width="46.6963" height="838.705" transform="matrix(0.846145 0.532953 -0.113255 0.993566 870.453 -182.098)" fill="#F96464"/>
<rect width="46.6963" height="838.705" transform="matrix(0.846145 0.532953 -0.113255 0.993566 952.422 -182.098)" fill="#F96464"/>
<rect width="46.6963" height="838.705" transform="matrix(0.846145 0.532953 -0.113255 0.993566 1034.39 -182.098)" fill="#F96464"/>
<rect width="46.6963" height="838.705" transform="matrix(0.846145 0.532953 -0.113255 0.993566 1116.35 -182.098)" fill="#F96464"/>
<rect width="46.6963" height="838.705" transform="matrix(0.846145 0.532953 -0.113255 0.993566 1198.32 -182.098)" fill="#F96464"/>
<rect width="46.6963" height="838.705" transform="matrix(0.846145 0.532953 -0.113255 0.993566 1280.29 -182.098)" fill="#F96464"/>
<rect width="46.6963" height="838.705" transform="matrix(0.846145 0.532953 -0.113255 0.993566 1362.25 -182.098)" fill="#F96464"/>
<rect width="46.6963" height="838.705" transform="matrix(0.846145 0.532953 -0.113255 0.993566 1444.22 -182.098)" fill="#F96464"/>
<rect width="46.6963" height="838.705" transform="matrix(0.846145 0.532953 -0.113255 0.993566 1526.18 -182.098)" fill="#F96464"/>
</g>
<defs>
<clipPath id="clip0_3152_33">
<rect width="2839.38" height="790" fill="white" transform="translate(-699.922 -148)"/>
</clipPath>
</defs>
</svg>
