<svg width="680" height="680" viewBox="0 0 680 680" fill="none" xmlns="http://www.w3.org/2000/svg">
<rect width="680" height="680" fill="#0C0C0C"/>
<mask id="path-1-outside-1_1256_14" maskUnits="userSpaceOnUse" x="200" y="196" width="282" height="288" fill="black">
<rect fill="white" x="200" y="196" width="282" height="288"/>
<path d="M328.867 249.699C328.867 254.914 328.223 259.572 326.934 263.674C325.645 267.775 323.887 271.408 321.66 274.572C319.492 277.678 316.973 280.344 314.102 282.57C311.23 284.797 308.213 286.613 305.049 288.02C301.943 289.426 298.779 290.451 295.557 291.096C292.393 291.74 289.404 292.062 286.592 292.062H234.912V269.211H286.592C289.521 268.977 292.158 268.391 294.502 267.453C296.904 266.457 298.955 265.139 300.654 263.498C302.354 261.857 303.672 259.895 304.609 257.609C305.547 255.266 306.016 252.629 306.016 249.699V239.328C305.723 236.457 305.107 233.82 304.17 231.418C303.232 229.016 301.943 226.965 300.303 225.266C298.721 223.566 296.787 222.248 294.502 221.311C292.217 220.314 289.58 219.816 286.592 219.816H235.088C232.041 219.816 229.727 220.607 228.145 222.189C226.562 223.771 225.771 226.057 225.771 229.045V323H202.92V229.045C202.92 223.186 203.975 218.205 206.084 214.104C208.252 210.002 210.918 206.691 214.082 204.172C217.305 201.652 220.791 199.836 224.541 198.723C228.291 197.551 231.748 196.965 234.912 196.965H286.592C291.748 196.965 296.377 197.639 300.479 198.986C304.58 200.275 308.184 202.033 311.289 204.26C314.453 206.428 317.119 208.947 319.287 211.818C321.514 214.689 323.33 217.707 324.736 220.871C326.201 223.977 327.256 227.141 327.9 230.363C328.545 233.527 328.867 236.516 328.867 239.328V249.699ZM474.414 239.328C474.414 244.543 473.77 249.201 472.48 253.303C471.191 257.404 469.434 261.037 467.207 264.201C465.039 267.307 462.52 269.973 459.648 272.199C456.777 274.426 453.76 276.271 450.596 277.736C447.49 279.143 444.326 280.168 441.104 280.812C437.939 281.457 434.951 281.779 432.139 281.779L479.863 323H444.531L396.895 281.779H380.459V258.928H432.139C435.01 258.693 437.617 258.107 439.961 257.17C442.363 256.174 444.414 254.855 446.113 253.215C447.871 251.574 449.219 249.611 450.156 247.326C451.094 244.982 451.562 242.316 451.562 239.328V224.914C451.562 223.625 451.387 222.658 451.035 222.014C450.742 221.311 450.332 220.812 449.805 220.52C449.336 220.168 448.809 219.963 448.223 219.904C447.695 219.846 447.197 219.816 446.729 219.816H371.318V323H348.467V208.479C348.467 206.896 348.76 205.402 349.346 203.996C349.932 202.59 350.723 201.359 351.719 200.305C352.773 199.25 354.004 198.43 355.41 197.844C356.816 197.258 358.34 196.965 359.98 196.965H446.729C451.826 196.965 456.133 197.902 459.648 199.777C463.164 201.594 466.006 203.908 468.174 206.721C470.4 209.475 471.982 212.463 472.92 215.686C473.916 218.908 474.414 221.926 474.414 224.738V239.328ZM326.934 483H304.082V452.062H223.75V483H200.898V419.982C200.898 410.783 202.48 402.316 205.645 394.582C208.809 386.848 213.203 380.197 218.828 374.631C224.453 369.064 231.104 364.729 238.779 361.623C246.455 358.518 254.834 356.965 263.916 356.965H315.42C317.002 356.965 318.496 357.258 319.902 357.844C321.309 358.43 322.539 359.25 323.594 360.305C324.648 361.359 325.469 362.59 326.055 363.996C326.641 365.402 326.934 366.896 326.934 368.479V483ZM223.75 429.211H304.082V379.816H263.916C263.213 379.816 261.719 379.934 259.434 380.168C257.207 380.344 254.6 380.842 251.611 381.662C248.682 382.482 245.576 383.742 242.295 385.441C239.014 387.141 235.996 389.484 233.242 392.473C230.488 395.461 228.203 399.211 226.387 403.723C224.629 408.176 223.75 413.596 223.75 419.982V429.211Z"/>
</mask>
<path d="M328.867 249.699C328.867 254.914 328.223 259.572 326.934 263.674C325.645 267.775 323.887 271.408 321.66 274.572C319.492 277.678 316.973 280.344 314.102 282.57C311.23 284.797 308.213 286.613 305.049 288.02C301.943 289.426 298.779 290.451 295.557 291.096C292.393 291.74 289.404 292.062 286.592 292.062H234.912V269.211H286.592C289.521 268.977 292.158 268.391 294.502 267.453C296.904 266.457 298.955 265.139 300.654 263.498C302.354 261.857 303.672 259.895 304.609 257.609C305.547 255.266 306.016 252.629 306.016 249.699V239.328C305.723 236.457 305.107 233.82 304.17 231.418C303.232 229.016 301.943 226.965 300.303 225.266C298.721 223.566 296.787 222.248 294.502 221.311C292.217 220.314 289.58 219.816 286.592 219.816H235.088C232.041 219.816 229.727 220.607 228.145 222.189C226.562 223.771 225.771 226.057 225.771 229.045V323H202.92V229.045C202.92 223.186 203.975 218.205 206.084 214.104C208.252 210.002 210.918 206.691 214.082 204.172C217.305 201.652 220.791 199.836 224.541 198.723C228.291 197.551 231.748 196.965 234.912 196.965H286.592C291.748 196.965 296.377 197.639 300.479 198.986C304.58 200.275 308.184 202.033 311.289 204.26C314.453 206.428 317.119 208.947 319.287 211.818C321.514 214.689 323.33 217.707 324.736 220.871C326.201 223.977 327.256 227.141 327.9 230.363C328.545 233.527 328.867 236.516 328.867 239.328V249.699ZM474.414 239.328C474.414 244.543 473.77 249.201 472.48 253.303C471.191 257.404 469.434 261.037 467.207 264.201C465.039 267.307 462.52 269.973 459.648 272.199C456.777 274.426 453.76 276.271 450.596 277.736C447.49 279.143 444.326 280.168 441.104 280.812C437.939 281.457 434.951 281.779 432.139 281.779L479.863 323H444.531L396.895 281.779H380.459V258.928H432.139C435.01 258.693 437.617 258.107 439.961 257.17C442.363 256.174 444.414 254.855 446.113 253.215C447.871 251.574 449.219 249.611 450.156 247.326C451.094 244.982 451.562 242.316 451.562 239.328V224.914C451.562 223.625 451.387 222.658 451.035 222.014C450.742 221.311 450.332 220.812 449.805 220.52C449.336 220.168 448.809 219.963 448.223 219.904C447.695 219.846 447.197 219.816 446.729 219.816H371.318V323H348.467V208.479C348.467 206.896 348.76 205.402 349.346 203.996C349.932 202.59 350.723 201.359 351.719 200.305C352.773 199.25 354.004 198.43 355.41 197.844C356.816 197.258 358.34 196.965 359.98 196.965H446.729C451.826 196.965 456.133 197.902 459.648 199.777C463.164 201.594 466.006 203.908 468.174 206.721C470.4 209.475 471.982 212.463 472.92 215.686C473.916 218.908 474.414 221.926 474.414 224.738V239.328ZM326.934 483H304.082V452.062H223.75V483H200.898V419.982C200.898 410.783 202.48 402.316 205.645 394.582C208.809 386.848 213.203 380.197 218.828 374.631C224.453 369.064 231.104 364.729 238.779 361.623C246.455 358.518 254.834 356.965 263.916 356.965H315.42C317.002 356.965 318.496 357.258 319.902 357.844C321.309 358.43 322.539 359.25 323.594 360.305C324.648 361.359 325.469 362.59 326.055 363.996C326.641 365.402 326.934 366.896 326.934 368.479V483ZM223.75 429.211H304.082V379.816H263.916C263.213 379.816 261.719 379.934 259.434 380.168C257.207 380.344 254.6 380.842 251.611 381.662C248.682 382.482 245.576 383.742 242.295 385.441C239.014 387.141 235.996 389.484 233.242 392.473C230.488 395.461 228.203 399.211 226.387 403.723C224.629 408.176 223.75 413.596 223.75 419.982V429.211Z" fill="white"/>
<path d="M321.66 274.572L321.108 274.184L321.107 274.186L321.66 274.572ZM305.049 288.02L304.775 287.403L304.77 287.405L305.049 288.02ZM295.557 291.096L295.424 290.434L295.422 290.434L295.557 291.096ZM234.912 292.062H234.237V292.737H234.912V292.062ZM234.912 269.211V268.536H234.237V269.211H234.912ZM286.592 269.211V269.886H286.619L286.646 269.884L286.592 269.211ZM294.502 267.453L294.753 268.08L294.76 268.076L294.502 267.453ZM304.609 257.609L305.234 257.866L305.236 257.86L304.609 257.609ZM306.016 239.328H306.69V239.294L306.687 239.26L306.016 239.328ZM300.303 225.266L299.809 225.726L299.817 225.734L300.303 225.266ZM294.502 221.311L294.232 221.929L294.239 221.932L294.246 221.935L294.502 221.311ZM225.771 323V323.675H226.446V323H225.771ZM202.92 323H202.245V323.675H202.92V323ZM206.084 214.104L205.487 213.788L205.484 213.795L206.084 214.104ZM214.082 204.172L213.666 203.64L213.662 203.644L214.082 204.172ZM224.541 198.723L224.733 199.37L224.742 199.367L224.541 198.723ZM300.479 198.986L300.268 199.627L300.276 199.63L300.479 198.986ZM311.289 204.26L310.896 204.808L310.902 204.812L310.908 204.816L311.289 204.26ZM319.287 211.818L318.749 212.225L318.754 212.232L319.287 211.818ZM324.736 220.871L324.12 221.145L324.123 221.152L324.126 221.159L324.736 220.871ZM327.9 230.363L327.239 230.496L327.239 230.498L327.9 230.363ZM328.192 249.699C328.192 254.86 327.554 259.448 326.29 263.472L327.577 263.876C328.891 259.697 329.542 254.969 329.542 249.699H328.192ZM326.29 263.472C325.019 267.514 323.291 271.083 321.108 274.184L322.212 274.961C324.483 271.734 326.27 268.037 327.577 263.876L326.29 263.472ZM321.107 274.186C318.976 277.238 316.503 279.854 313.688 282.037L314.515 283.104C317.442 280.834 320.008 278.117 322.213 274.959L321.107 274.186ZM313.688 282.037C310.858 284.232 307.887 286.02 304.775 287.403L305.323 288.636C308.539 287.207 311.603 285.362 314.515 283.104L313.688 282.037ZM304.77 287.405C301.71 288.791 298.595 289.8 295.424 290.434L295.689 291.757C298.964 291.102 302.177 290.061 305.327 288.634L304.77 287.405ZM295.422 290.434C292.296 291.071 289.353 291.388 286.592 291.388V292.737C289.456 292.737 292.489 292.409 295.691 291.757L295.422 290.434ZM286.592 291.388H234.912V292.737H286.592V291.388ZM235.587 292.062V269.211H234.237V292.062H235.587ZM234.912 269.886H286.592V268.536H234.912V269.886ZM286.646 269.884C289.632 269.645 292.337 269.046 294.753 268.08L294.251 266.827C291.98 267.735 289.411 268.308 286.538 268.538L286.646 269.884ZM294.76 268.076C297.233 267.051 299.357 265.689 301.123 263.984L300.186 263.013C298.553 264.589 296.576 265.863 294.243 266.83L294.76 268.076ZM301.123 263.984C302.892 262.275 304.262 260.233 305.234 257.866L303.985 257.353C303.081 259.556 301.815 261.44 300.186 263.013L301.123 263.984ZM305.236 257.86C306.21 255.425 306.69 252.701 306.69 249.699H305.341C305.341 252.557 304.884 255.106 303.983 257.359L305.236 257.86ZM306.69 249.699V239.328H305.341V249.699H306.69ZM306.687 239.26C306.389 236.335 305.761 233.638 304.799 231.173L303.541 231.663C304.454 234.003 305.057 236.579 305.344 239.397L306.687 239.26ZM304.799 231.173C303.832 228.695 302.496 226.566 300.788 224.797L299.817 225.734C301.39 227.364 302.633 229.336 303.541 231.663L304.799 231.173ZM300.797 224.806C299.144 223.031 297.128 221.658 294.758 220.686L294.246 221.935C296.447 222.838 298.297 224.102 299.809 225.725L300.797 224.806ZM294.772 220.692C292.386 219.652 289.655 219.142 286.592 219.142V220.491C289.505 220.491 292.047 220.977 294.232 221.929L294.772 220.692ZM286.592 219.142H235.088V220.491H286.592V219.142ZM235.088 219.142C231.928 219.142 229.416 219.963 227.667 221.712L228.622 222.667C230.037 221.251 232.154 220.491 235.088 220.491V219.142ZM227.667 221.712C225.921 223.459 225.097 225.94 225.097 229.045H226.446C226.446 226.174 227.204 224.084 228.622 222.667L227.667 221.712ZM225.097 229.045V323H226.446V229.045H225.097ZM225.771 322.325H202.92V323.675H225.771V322.325ZM203.595 323V229.045H202.245V323H203.595ZM203.595 229.045C203.595 223.265 204.635 218.396 206.684 214.412L205.484 213.795C203.314 218.014 202.245 223.106 202.245 229.045H203.595ZM206.681 214.419C208.811 210.388 211.421 207.153 214.502 204.7L213.662 203.644C210.415 206.229 207.692 209.616 205.487 213.788L206.681 214.419ZM214.498 204.703C217.657 202.234 221.068 200.458 224.733 199.37L224.349 198.076C220.514 199.214 216.953 201.071 213.666 203.64L214.498 204.703ZM224.742 199.367C228.442 198.211 231.83 197.64 234.912 197.64V196.29C231.666 196.29 228.14 196.891 224.34 198.079L224.742 199.367ZM234.912 197.64H286.592V196.29H234.912V197.64ZM286.592 197.64C291.69 197.64 296.246 198.306 300.268 199.627L300.689 198.345C296.508 196.971 291.806 196.29 286.592 196.29V197.64ZM300.276 199.63C304.318 200.9 307.855 202.628 310.896 204.808L311.682 203.711C308.512 201.438 304.842 199.65 300.681 198.343L300.276 199.63ZM310.908 204.816C314.016 206.946 316.627 209.416 318.749 212.225L319.826 211.412C317.611 208.479 314.891 205.91 311.67 203.703L310.908 204.816ZM318.754 212.232C320.949 215.062 322.737 218.033 324.12 221.145L325.353 220.597C323.924 217.381 322.079 214.317 319.82 211.405L318.754 212.232ZM324.126 221.159C325.569 224.217 326.605 227.329 327.239 230.496L328.562 230.231C327.906 226.952 326.834 223.736 325.347 220.583L324.126 221.159ZM327.239 230.498C327.876 233.624 328.192 236.567 328.192 239.328H329.542C329.542 236.464 329.214 233.431 328.562 230.229L327.239 230.498ZM328.192 239.328V249.699H329.542V239.328H328.192ZM467.207 264.201L466.655 263.813L466.654 263.815L467.207 264.201ZM450.596 277.736L450.874 278.351L450.879 278.349L450.596 277.736ZM441.104 280.812L440.971 280.151L440.969 280.151L441.104 280.812ZM432.139 281.779V281.104H430.325L431.698 282.29L432.139 281.779ZM479.863 323V323.675H481.677L480.304 322.489L479.863 323ZM444.531 323L444.09 323.51L444.28 323.675H444.531V323ZM396.895 281.779L397.336 281.269L397.146 281.104H396.895V281.779ZM380.459 281.779H379.784V282.454H380.459V281.779ZM380.459 258.928V258.253H379.784V258.928H380.459ZM432.139 258.928V259.603H432.166L432.194 259.6L432.139 258.928ZM439.961 257.17L440.212 257.797L440.219 257.793L439.961 257.17ZM446.113 253.215L445.653 252.721L445.645 252.729L446.113 253.215ZM450.156 247.326L450.781 247.582L450.783 247.577L450.156 247.326ZM451.035 222.014L450.412 222.273L450.426 222.306L450.443 222.337L451.035 222.014ZM449.805 220.52L449.4 221.059L449.437 221.087L449.477 221.109L449.805 220.52ZM448.223 219.904L448.148 220.575L448.156 220.576L448.223 219.904ZM371.318 219.816V219.142H370.644V219.816H371.318ZM371.318 323V323.675H371.993V323H371.318ZM348.467 323H347.792V323.675H348.467V323ZM351.719 200.305L351.242 199.828L351.235 199.834L351.228 199.841L351.719 200.305ZM459.648 199.777L459.331 200.373L459.339 200.377L459.648 199.777ZM468.174 206.721L467.639 207.133L467.644 207.139L467.649 207.145L468.174 206.721ZM472.92 215.686L472.272 215.874L472.275 215.885L472.92 215.686ZM473.739 239.328C473.739 244.488 473.101 249.077 471.837 253.1L473.124 253.505C474.438 249.326 475.089 244.598 475.089 239.328H473.739ZM471.837 253.1C470.566 257.143 468.837 260.712 466.655 263.813L467.759 264.59C470.03 261.363 471.817 257.666 473.124 253.505L471.837 253.1ZM466.654 263.815C464.523 266.867 462.05 269.483 459.235 271.666L460.062 272.732C462.989 270.462 465.555 267.746 467.76 264.587L466.654 263.815ZM459.235 271.666C456.402 273.863 453.428 275.681 450.312 277.124L450.879 278.349C454.091 276.862 457.152 274.989 460.062 272.732L459.235 271.666ZM450.317 277.122C447.257 278.507 444.142 279.517 440.971 280.151L441.236 281.474C444.511 280.819 447.724 279.778 450.874 278.351L450.317 277.122ZM440.969 280.151C437.843 280.788 434.9 281.104 432.139 281.104V282.454C435.002 282.454 438.036 282.126 441.238 281.474L440.969 280.151ZM431.698 282.29L479.422 323.511L480.304 322.489L432.58 281.269L431.698 282.29ZM479.863 322.325H444.531V323.675H479.863V322.325ZM444.973 322.49L397.336 281.269L396.453 282.29L444.09 323.51L444.973 322.49ZM396.895 281.104H380.459V282.454H396.895V281.104ZM381.134 281.779V258.928H379.784V281.779H381.134ZM380.459 259.603H432.139V258.253H380.459V259.603ZM432.194 259.6C435.123 259.361 437.797 258.762 440.212 257.796L439.71 256.543C437.437 257.453 434.897 258.026 432.084 258.255L432.194 259.6ZM440.219 257.793C442.692 256.768 444.816 255.405 446.582 253.7L445.645 252.729C444.012 254.306 442.035 255.58 439.702 256.547L440.219 257.793ZM446.574 253.708C448.405 251.999 449.807 249.955 450.781 247.582L449.532 247.07C448.63 249.268 447.338 251.149 445.653 252.722L446.574 253.708ZM450.783 247.577C451.757 245.14 452.237 242.387 452.237 239.328H450.888C450.888 242.246 450.43 244.825 449.53 247.076L450.783 247.577ZM452.237 239.328V224.914H450.888V239.328H452.237ZM452.237 224.914C452.237 223.586 452.06 222.483 451.628 221.691L450.443 222.337C450.713 222.833 450.888 223.664 450.888 224.914H452.237ZM451.658 221.754C451.322 220.948 450.824 220.314 450.132 219.93L449.477 221.109C449.84 221.311 450.162 221.673 450.412 222.273L451.658 221.754ZM450.21 219.98C449.642 219.554 448.998 219.304 448.29 219.233L448.156 220.576C448.62 220.622 449.03 220.782 449.4 221.059L450.21 219.98ZM448.297 219.234C447.748 219.173 447.225 219.142 446.729 219.142V220.491C447.169 220.491 447.642 220.519 448.148 220.575L448.297 219.234ZM446.729 219.142H371.318V220.491H446.729V219.142ZM370.644 219.816V323H371.993V219.816H370.644ZM371.318 322.325H348.467V323.675H371.318V322.325ZM349.142 323V208.479H347.792V323H349.142ZM349.142 208.479C349.142 206.982 349.418 205.576 349.969 204.256L348.723 203.737C348.101 205.228 347.792 206.811 347.792 208.479H349.142ZM349.969 204.256C350.525 202.921 351.272 201.76 352.209 200.768L351.228 199.841C350.173 200.958 349.339 202.259 348.723 203.737L349.969 204.256ZM352.196 200.782C353.187 199.791 354.343 199.019 355.67 198.467L355.151 197.221C353.665 197.84 352.36 198.709 351.242 199.828L352.196 200.782ZM355.67 198.467C356.988 197.918 358.422 197.64 359.98 197.64V196.29C358.258 196.29 356.645 196.598 355.151 197.221L355.67 198.467ZM359.98 197.64H446.729V196.29H359.98V197.64ZM446.729 197.64C451.746 197.64 455.937 198.562 459.331 200.373L459.966 199.182C456.329 197.242 451.907 196.29 446.729 196.29V197.64ZM459.339 200.377C462.777 202.153 465.538 204.407 467.639 207.133L468.708 206.309C466.473 203.409 463.551 201.034 459.958 199.178L459.339 200.377ZM467.649 207.145C469.822 209.833 471.361 212.742 472.272 215.874L473.568 215.497C472.604 212.184 470.978 209.116 468.699 206.296L467.649 207.145ZM472.275 215.885C473.255 219.055 473.739 222.005 473.739 224.738H475.089C475.089 221.846 474.577 218.761 473.565 215.486L472.275 215.885ZM473.739 224.738V239.328H475.089V224.738H473.739ZM326.934 483V483.675H327.608V483H326.934ZM304.082 483H303.407V483.675H304.082V483ZM304.082 452.062H304.757V451.388H304.082V452.062ZM223.75 452.062V451.388H223.075V452.062H223.75ZM223.75 483V483.675H224.425V483H223.75ZM200.898 483H200.224V483.675H200.898V483ZM223.75 429.211H223.075V429.886H223.75V429.211ZM304.082 429.211V429.886H304.757V429.211H304.082ZM304.082 379.816H304.757V379.142H304.082V379.816ZM259.434 380.168L259.487 380.841L259.495 380.84L259.502 380.839L259.434 380.168ZM251.611 381.662L251.433 381.011L251.429 381.012L251.611 381.662ZM226.387 403.723L225.761 403.471L225.759 403.475L226.387 403.723ZM326.934 482.325H304.082V483.675H326.934V482.325ZM304.757 483V452.062H303.407V483H304.757ZM304.082 451.388H223.75V452.737H304.082V451.388ZM223.075 452.062V483H224.425V452.062H223.075ZM223.75 482.325H200.898V483.675H223.75V482.325ZM201.573 483V419.982H200.224V483H201.573ZM201.573 419.982C201.573 410.862 203.141 402.483 206.269 394.838L205.02 394.327C201.82 402.15 200.224 410.704 200.224 419.982H201.573ZM206.269 394.838C209.401 387.182 213.746 380.61 219.303 375.111L218.353 374.151C212.66 379.785 208.216 386.513 205.02 394.327L206.269 394.838ZM219.303 375.111C224.861 369.61 231.435 365.322 239.032 362.249L238.526 360.997C230.772 364.135 224.045 368.519 218.353 374.151L219.303 375.111ZM239.032 362.249C246.62 359.179 254.912 357.64 263.916 357.64V356.29C254.756 356.29 246.29 357.856 238.526 360.997L239.032 362.249ZM263.916 357.64H315.42V356.29H263.916V357.64ZM315.42 357.64C316.916 357.64 318.322 357.916 319.643 358.467L320.162 357.221C318.67 356.599 317.088 356.29 315.42 356.29V357.64ZM319.643 358.467C320.969 359.019 322.126 359.791 323.117 360.782L324.071 359.828C322.953 358.709 321.648 357.84 320.162 357.221L319.643 358.467ZM323.117 360.782C324.108 361.773 324.879 362.929 325.432 364.256L326.678 363.737C326.059 362.251 325.189 360.946 324.071 359.828L323.117 360.782ZM325.432 364.256C325.982 365.576 326.259 366.982 326.259 368.479H327.608C327.608 366.811 327.299 365.228 326.678 363.737L325.432 364.256ZM326.259 368.479V483H327.608V368.479H326.259ZM223.75 429.886H304.082V428.536H223.75V429.886ZM304.757 429.211V379.816H303.407V429.211H304.757ZM304.082 379.142H263.916V380.491H304.082V379.142ZM263.916 379.142C263.172 379.142 261.642 379.263 259.365 379.497L259.502 380.839C261.796 380.604 263.254 380.491 263.916 380.491V379.142ZM259.38 379.495C257.099 379.675 254.448 380.184 251.433 381.011L251.79 382.313C254.752 381.5 257.315 381.012 259.487 380.841L259.38 379.495ZM251.429 381.012C248.447 381.847 245.298 383.126 241.985 384.842L242.605 386.041C245.854 384.358 248.916 383.117 251.793 382.312L251.429 381.012ZM241.985 384.842C238.627 386.581 235.548 388.975 232.746 392.015L233.738 392.93C236.444 389.994 239.4 387.7 242.605 386.041L241.985 384.842ZM232.746 392.015C229.927 395.074 227.602 398.898 225.761 403.471L227.013 403.975C228.804 399.524 231.05 395.848 233.738 392.93L232.746 392.015ZM225.759 403.475C223.962 408.028 223.075 413.538 223.075 419.982H224.425C224.425 413.654 225.296 408.323 227.014 403.97L225.759 403.475ZM223.075 419.982V429.211H224.425V419.982H223.075Z" fill="#F96464" fill-opacity="0.2" mask="url(#path-1-outside-1_1256_14)"/>
<path opacity="0.4" d="M404 349H434L384 483H354L404 349Z" fill="white"/>
<path opacity="0.15" d="M454 349H484L434 483H404L454 349Z" fill="white"/>
<path d="M354 349H384L334 483H304L354 349Z" fill="white"/>
<path d="M146 311.981V178.647C146 157.303 163.303 140 184.647 140H298.657" stroke="#F96464" stroke-opacity="0.2" stroke-width="23.1884" stroke-linecap="round"/>
<path d="M146 371.884V501.353C146 522.697 163.303 540 184.647 540H309.285" stroke="#F96464" stroke-opacity="0.2" stroke-width="23.1884" stroke-linecap="round"/>
<path d="M522.812 270.435V178.647C522.812 157.303 505.509 140 484.164 140H361.459" stroke="#F96464" stroke-opacity="0.2" stroke-width="23.1884" stroke-linecap="round"/>
<path d="M522.812 450.145V501.353C522.812 522.697 505.509 540 484.164 540H368.222" stroke="#F96464" stroke-opacity="0.2" stroke-width="23.1884" stroke-linecap="round"/>
<rect x="511.217" y="319.71" width="23.1884" height="80.1932" rx="11.5942" fill="#F96464" fill-opacity="0.2"/>
</svg>
