<svg width="64" height="64" viewBox="0 0 64 64" fill="none" xmlns="http://www.w3.org/2000/svg">
<g id="solar:text-field-focus-line-duotone">
<g id="Group">
<path id="Vector" d="M22 41.3334C22 41.8639 22.2107 42.3726 22.5858 42.7476C22.9609 43.1227 23.4696 43.3334 24 43.3334C24.5304 43.3334 25.0391 43.1227 25.4142 42.7476C25.7893 42.3726 26 41.8639 26 41.3334H22ZM30 27.8001C30 28.3305 30.2107 28.8392 30.5858 29.2143C30.9609 29.5894 31.4696 29.8001 32 29.8001C32.5304 29.8001 33.0391 29.5894 33.4142 29.2143C33.7893 28.8392 34 28.3305 34 27.8001H30ZM14 27.8001C14 28.3305 14.2107 28.8392 14.5858 29.2143C14.9609 29.5894 15.4696 29.8001 16 29.8001C16.5304 29.8001 17.0391 29.5894 17.4142 29.2143C17.7893 28.8392 18 28.3305 18 27.8001H14ZM18.6667 39.3334C18.1362 39.3334 17.6275 39.5441 17.2525 39.9192C16.8774 40.2943 16.6667 40.803 16.6667 41.3334C16.6667 41.8639 16.8774 42.3726 17.2525 42.7476C17.6275 43.1227 18.1362 43.3334 18.6667 43.3334V39.3334ZM29.3333 43.3334C29.8638 43.3334 30.3725 43.1227 30.7476 42.7476C31.1226 42.3726 31.3333 41.8639 31.3333 41.3334C31.3333 40.803 31.1226 40.2943 30.7476 39.9192C30.3725 39.5441 29.8638 39.3334 29.3333 39.3334V43.3334ZM21.1333 24.6668H24V20.6668H21.1333V24.6668ZM24 24.6668H26.8667V20.6668H24V24.6668ZM26 41.3334V22.6668H22V41.3334H26ZM26.8667 24.6668C28.08 24.6668 28.8027 24.6694 29.3253 24.7361C29.7973 24.7948 29.8213 24.8748 29.7787 24.8348L32.432 21.8454C31.632 21.1308 30.696 20.8748 29.8187 20.7654C28.992 20.6641 27.976 20.6668 26.8667 20.6668V24.6668ZM34 27.8001C34 26.6908 34.0027 25.6748 33.9013 24.8481C33.792 23.9708 33.536 23.0348 32.8213 22.2348L29.832 24.8908C29.792 24.8454 29.872 24.8694 29.9307 25.3441C29.9973 25.8641 30 26.5868 30 27.8001H34ZM29.7787 24.8348C29.7974 24.8515 29.8126 24.8693 29.8293 24.8881L32.8213 22.2348C32.6994 22.0974 32.5694 21.9674 32.432 21.8454L29.7787 24.8348ZM21.1333 20.6668C20.024 20.6668 19.008 20.6641 18.1813 20.7654C17.304 20.8748 16.368 21.1308 15.568 21.8454L18.224 24.8348C18.1787 24.8748 18.2027 24.7948 18.6773 24.7361C19.1973 24.6694 19.92 24.6668 21.1333 24.6668V20.6668ZM18 27.8001C18 26.5868 18.0027 25.8641 18.0693 25.3414C18.128 24.8694 18.208 24.8454 18.168 24.8881L15.1787 22.2348C14.464 23.0348 14.208 23.9708 14.0987 24.8481C13.9973 25.6748 14 26.6908 14 27.8001H18ZM15.568 21.8454C15.4293 21.9681 15.3013 22.0961 15.1787 22.2348L18.168 24.8881C18.1848 24.8693 18.2026 24.8542 18.2213 24.8374L15.568 21.8454ZM18.6667 43.3334H29.3333V39.3334H18.6667V43.3334Z" fill="#F96464"/>
<path id="Vector_2" opacity="0.5" d="M32.0006 10.6667H26.6673C16.6113 10.6667 11.582 10.6667 8.45932 13.7921C5.33398 16.9147 5.33398 21.9441 5.33398 32.0001C5.33398 42.0561 5.33398 47.0854 8.45932 50.2081C11.582 53.3334 16.6113 53.3334 26.6673 53.3334H32.0006M40.0006 10.6667C48.3046 10.6934 52.7073 10.9547 55.542 13.7921C58.6673 16.9147 58.6673 21.9441 58.6673 32.0001C58.6673 42.0561 58.6673 47.0854 55.542 50.2081C52.7073 53.0454 48.3046 53.3067 40.0006 53.3334" stroke="#F96464" stroke-width="3" stroke-linecap="round"/>
<path id="Vector_3" d="M40 5.33337V58.6667" stroke="#F96464" stroke-width="3" stroke-linecap="round"/>
</g>
</g>
</svg>
