<svg width="65" height="64" viewBox="0 0 65 64" fill="none" xmlns="http://www.w3.org/2000/svg">
<g id="solar:chart-2-line-duotone">
<g id="Group">
<path id="Vector" opacity="0.5" d="M8.5 58.6667H56.5" stroke="#F96464" stroke-width="3" stroke-linecap="round" stroke-linejoin="round"/>
<path id="Vector_2" d="M8.5 29.3334C8.5 26.8187 8.5 25.5627 9.28133 24.7814C10.0627 24 11.3187 24 13.8333 24C16.348 24 17.604 24 18.3853 24.7814C19.1667 25.5627 19.1667 26.8187 19.1667 29.3334V45.3334C19.1667 47.848 19.1667 49.104 18.3853 49.8854C17.604 50.6667 16.348 50.6667 13.8333 50.6667C11.3187 50.6667 10.0627 50.6667 9.28133 49.8854C8.5 49.104 8.5 47.848 8.5 45.3334V29.3334ZM27.1667 18.6667C27.1667 16.152 27.1667 14.896 27.948 14.1147C28.7293 13.3334 29.9853 13.3334 32.5 13.3334C35.0147 13.3334 36.2707 13.3334 37.052 14.1147C37.8333 14.896 37.8333 16.152 37.8333 18.6667V45.3334C37.8333 47.848 37.8333 49.104 37.052 49.8854C36.2707 50.6667 35.0147 50.6667 32.5 50.6667C29.9853 50.6667 28.7293 50.6667 27.948 49.8854C27.1667 49.104 27.1667 47.848 27.1667 45.3334V18.6667ZM45.8333 10.6667C45.8333 8.15204 45.8333 6.89604 46.6147 6.11471C47.396 5.33337 48.652 5.33337 51.1667 5.33337C53.6813 5.33337 54.9373 5.33337 55.7187 6.11471C56.5 6.89604 56.5 8.15204 56.5 10.6667V45.3334C56.5 47.848 56.5 49.104 55.7187 49.8854C54.9373 50.6667 53.6813 50.6667 51.1667 50.6667C48.652 50.6667 47.396 50.6667 46.6147 49.8854C45.8333 49.104 45.8333 47.848 45.8333 45.3334V10.6667Z" stroke="#F96464" stroke-width="3"/>
</g>
</g>
</svg>
