<svg width="64" height="64" viewBox="0 0 64 64" fill="none" xmlns="http://www.w3.org/2000/svg">
<g id="solar:gallery-favourite-line-duotone">
<g id="Group">
<path id="Vector" d="M58.6654 32C58.6654 44.5707 58.6654 50.856 54.7587 54.76C50.8574 58.6667 44.5694 58.6667 31.9987 58.6667C19.428 58.6667 13.1427 58.6667 9.23603 54.76C5.33203 50.8587 5.33203 44.5707 5.33203 32C5.33203 19.4294 5.33203 13.144 9.23603 9.23737C13.1454 5.33337 19.428 5.33337 31.9987 5.33337" stroke="#F96464" stroke-width="3" stroke-linecap="round"/>
<path id="Vector_2" opacity="0.5" d="M5.33203 33.3334L10.004 29.2454C11.1751 28.2216 12.6914 27.6809 14.246 27.7329C15.8006 27.7849 17.2773 28.4256 18.3774 29.5254L29.8174 40.9654C30.7051 41.8529 31.8775 42.3989 33.1282 42.5072C34.3788 42.6155 35.6276 42.2792 36.6547 41.5574L37.452 40.9974C38.9336 39.9568 40.7244 39.4496 42.5316 39.5585C44.3388 39.6675 46.0556 40.3863 47.4014 41.5974L55.9987 49.3334" stroke="#F96464" stroke-width="3" stroke-linecap="round"/>
<path id="Vector_3" d="M47.9987 10.5813L46.58 11.992C46.7659 12.1791 46.9869 12.3275 47.2304 12.4288C47.4739 12.5301 47.735 12.5823 47.9987 12.5823C48.2624 12.5823 48.5235 12.5301 48.767 12.4288C49.0105 12.3275 49.2315 12.1791 49.4174 11.992L47.9987 10.5813ZM44.1374 21.344C42.8414 20.2187 41.5987 18.9573 40.692 17.68C39.7667 16.3733 39.332 15.2427 39.332 14.3333H35.332C35.332 16.4347 36.2867 18.3813 37.428 19.992C38.588 21.6293 40.092 23.1253 41.516 24.3627L44.1374 21.344ZM39.332 14.3333C39.332 11.8453 40.452 10.5893 41.556 10.1813C42.692 9.76535 44.5694 9.96801 46.58 11.992L49.4174 9.17068C46.6307 6.37068 43.172 5.32535 40.1747 6.42935C37.1454 7.54401 35.332 10.576 35.332 14.3333H39.332ZM54.484 24.3627C55.9054 23.1253 57.4094 21.6293 58.5694 19.992C59.7107 18.3813 60.6654 16.4347 60.6654 14.3333H56.6654C56.6654 15.2427 56.2307 16.3733 55.3054 17.68C54.3987 18.96 53.156 20.2187 51.86 21.344L54.484 24.3627ZM60.6654 14.3333C60.6654 10.5733 58.852 7.54401 55.8227 6.42935C52.8254 5.32535 49.3694 6.36801 46.58 9.17068L49.4174 11.992C51.4307 9.96535 53.3054 9.76535 54.4414 10.1813C55.5454 10.5893 56.6654 11.8453 56.6654 14.3333H60.6654ZM41.516 24.3627C43.532 26.1173 45.1427 27.616 47.9987 27.616V23.616C46.868 23.616 46.3587 23.272 44.1374 21.344L41.516 24.3627ZM51.86 21.344C49.6387 23.272 49.1294 23.616 47.9987 23.616V27.616C50.8547 27.616 52.4654 26.1173 54.484 24.3627L51.86 21.344Z" fill="#F96464"/>
</g>
</g>
</svg>
