<svg width="65" height="64" viewBox="0 0 65 64" fill="none" xmlns="http://www.w3.org/2000/svg">
<g id="solar:text-selection-line-duotone">
<g id="Group">
<path id="Vector" d="M24.5 24H40.5M32.5 40V24" stroke="#F96464" stroke-width="3" stroke-linecap="round"/>
<path id="Vector_2" d="M16.4987 10.6667C16.4987 12.0812 15.9368 13.4377 14.9366 14.4379C13.9364 15.4381 12.5799 16 11.1654 16C9.75088 16 8.39432 15.4381 7.39413 14.4379C6.39393 13.4377 5.83203 12.0812 5.83203 10.6667C5.83203 9.25222 6.39393 7.89566 7.39413 6.89547C8.39432 5.89528 9.75088 5.33337 11.1654 5.33337C12.5799 5.33337 13.9364 5.89528 14.9366 6.89547C15.9368 7.89566 16.4987 9.25222 16.4987 10.6667ZM16.4987 53.3334C16.4987 54.7479 15.9368 56.1044 14.9366 57.1046C13.9364 58.1048 12.5799 58.6667 11.1654 58.6667C9.75088 58.6667 8.39432 58.1048 7.39413 57.1046C6.39393 56.1044 5.83203 54.7479 5.83203 53.3334C5.83203 51.9189 6.39393 50.5623 7.39413 49.5621C8.39432 48.5619 9.75088 48 11.1654 48C12.5799 48 13.9364 48.5619 14.9366 49.5621C15.9368 50.5623 16.4987 51.9189 16.4987 53.3334ZM59.1654 10.6667C59.1654 12.0812 58.6035 13.4377 57.6033 14.4379C56.6031 15.4381 55.2465 16 53.832 16C52.4175 16 51.061 15.4381 50.0608 14.4379C49.0606 13.4377 48.4987 12.0812 48.4987 10.6667C48.4987 9.25222 49.0606 7.89566 50.0608 6.89547C51.061 5.89528 52.4175 5.33337 53.832 5.33337C55.2465 5.33337 56.6031 5.89528 57.6033 6.89547C58.6035 7.89566 59.1654 9.25222 59.1654 10.6667ZM59.1654 53.3334C59.1654 54.7479 58.6035 56.1044 57.6033 57.1046C56.6031 58.1048 55.2465 58.6667 53.832 58.6667C52.4175 58.6667 51.061 58.1048 50.0608 57.1046C49.0606 56.1044 48.4987 54.7479 48.4987 53.3334C48.4987 51.9189 49.0606 50.5623 50.0608 49.5621C51.061 48.5619 52.4175 48 53.832 48C55.2465 48 56.6031 48.5619 57.6033 49.5621C58.6035 50.5623 59.1654 51.9189 59.1654 53.3334Z" stroke="#F96464" stroke-width="3"/>
<path id="Vector_3" opacity="0.5" d="M16.4974 53.3334H48.4974M48.4974 10.6667H16.4974M53.8307 48.0001V16.0001M11.1641 16.0001V48.0001" stroke="#F96464" stroke-width="3" stroke-linecap="round"/>
</g>
</g>
</svg>
