<svg width="38" height="40" viewBox="0 0 38 40" fill="none" xmlns="http://www.w3.org/2000/svg">
<g id="Group 50 1" clip-path="url(#clip0_3152_281)">
<path id="Vector" d="M18.3831 11.481C18.3831 11.973 18.3223 12.4124 18.2007 12.7994C18.0791 13.1863 17.9132 13.529 17.7032 13.8275C17.4986 14.1206 17.261 14.3721 16.9901 14.5821C16.7192 14.7922 16.4346 14.9635 16.1361 15.0962C15.8431 15.2289 15.5446 15.3256 15.2406 15.3864C14.9421 15.4472 14.6601 15.4775 14.3948 15.4775H9.51938V13.3218H14.3948C14.6712 13.2997 14.9199 13.2444 15.1411 13.1559C15.3677 13.062 15.5612 12.9376 15.7215 12.7828C15.8818 12.628 16.0062 12.4429 16.0946 12.2273C16.1831 12.0062 16.2273 11.7574 16.2273 11.481V10.5026C16.1997 10.2318 16.1415 9.98301 16.0532 9.75641C15.9647 9.5298 15.8431 9.33629 15.6883 9.17599C15.5391 9.01569 15.3566 8.89131 15.1411 8.80287C14.9255 8.70891 14.6767 8.66191 14.3948 8.66191H9.53598C9.24853 8.66191 9.03019 8.73654 8.88093 8.88579C8.73169 9.03504 8.65707 9.25061 8.65707 9.53254V18.3962H6.50125V9.53254C6.50125 8.97975 6.60075 8.50991 6.79975 8.12296C7.00428 7.73603 7.25579 7.42371 7.55428 7.18602C7.85831 6.94832 8.18721 6.77696 8.54098 6.67194C8.89475 6.56139 9.22089 6.5061 9.51938 6.5061H14.3948C14.8813 6.5061 15.318 6.56968 15.7049 6.69681C16.0918 6.81842 16.4318 6.98425 16.7248 7.19431C17.0232 7.39883 17.2748 7.63653 17.4793 7.90739C17.6894 8.17824 17.8607 8.46292 17.9933 8.76142C18.1315 9.05439 18.2311 9.35288 18.2918 9.65688C18.3527 9.95537 18.3831 10.2373 18.3831 10.5026V11.481ZM32.1139 10.5026C32.1139 10.9946 32.0532 11.434 31.9315 11.821C31.8098 12.2079 31.6441 12.5507 31.434 12.8491C31.2295 13.1422 30.9918 13.3937 30.7209 13.6037C30.45 13.8138 30.1654 13.9878 29.8669 14.126C29.5739 14.2588 29.2754 14.3555 28.9715 14.4162C28.6729 14.4771 28.391 14.5074 28.1257 14.5074L32.628 18.3962H29.2948L24.8008 14.5074H23.2502V12.3517H28.1257C28.3965 12.3295 28.6425 12.2742 28.8636 12.1858C29.0902 12.0919 29.2837 11.9674 29.444 11.8127C29.6098 11.6579 29.737 11.4727 29.8254 11.2572C29.9139 11.036 29.9581 10.7845 29.9581 10.5026V9.14283C29.9581 9.02122 29.9415 8.93001 29.9083 8.86921C29.8807 8.80287 29.842 8.75589 29.7923 8.72825C29.7481 8.69508 29.6983 8.67574 29.6431 8.67021C29.5932 8.66468 29.5463 8.66191 29.5021 8.66191H22.3879V18.3962H20.2321V7.5923C20.2321 7.44306 20.2598 7.30209 20.315 7.16943C20.3703 7.03676 20.4449 6.92069 20.5389 6.82119C20.6383 6.72169 20.7545 6.6443 20.8871 6.58903C21.0198 6.53375 21.1635 6.5061 21.3182 6.5061H29.5021C29.983 6.5061 30.3893 6.59455 30.7209 6.77143C31.0526 6.9428 31.3207 7.16114 31.5252 7.42647C31.7352 7.68627 31.8845 7.96819 31.973 8.27221C32.0669 8.57624 32.1139 8.86091 32.1139 9.12624V10.5026ZM18.2007 33.4906H16.0448V30.5719H8.46636V33.4906H6.31055V27.5455C6.31055 26.6776 6.4598 25.8789 6.75829 25.1492C7.05679 24.4196 7.47137 23.7922 8.00203 23.2671C8.53269 22.7419 9.16008 22.3329 9.88419 22.0399C10.6083 21.747 11.3988 21.6005 12.2556 21.6005H17.1145C17.2637 21.6005 17.4047 21.6281 17.5373 21.6834C17.67 21.7387 17.7861 21.816 17.8856 21.9156C17.985 22.015 18.0625 22.1311 18.1178 22.2638C18.1731 22.3964 18.2007 22.5373 18.2007 22.6867V33.4906ZM8.46636 28.4161H16.0448V23.7562H12.2556C12.1893 23.7562 12.0483 23.7673 11.8328 23.7894C11.6227 23.806 11.3767 23.853 11.0948 23.9304C10.8184 24.0077 10.5254 24.1266 10.2159 24.2869C9.90636 24.4473 9.62164 24.6683 9.36185 24.9503C9.10205 25.2322 8.88646 25.5859 8.7151 26.0116C8.54927 26.4317 8.46636 26.943 8.46636 27.5455V28.4161Z" fill="white"/>
<g id="Mask group">
<mask id="mask0_3152_281" style="mask-type:luminance" maskUnits="userSpaceOnUse" x="6" y="6" width="27" height="28">
<g id="Group">
<path id="Vector_2" d="M32.8303 6.41504H6.22656V33.5849H32.8303V6.41504Z" fill="white"/>
<path id="Vector_3" d="M18.3831 11.481C18.3831 11.973 18.3223 12.4124 18.2007 12.7994C18.0791 13.1863 17.9132 13.529 17.7032 13.8275C17.4986 14.1206 17.261 14.3721 16.9901 14.5821C16.7192 14.7922 16.4346 14.9635 16.1361 15.0962C15.8431 15.2289 15.5446 15.3256 15.2406 15.3864C14.9421 15.4472 14.6601 15.4775 14.3948 15.4775H9.51938V13.3218H14.3948C14.6712 13.2997 14.9199 13.2444 15.1411 13.1559C15.3677 13.062 15.5612 12.9376 15.7215 12.7828C15.8818 12.628 16.0062 12.4429 16.0946 12.2273C16.1831 12.0062 16.2273 11.7574 16.2273 11.481V10.5026C16.1997 10.2318 16.1415 9.98301 16.0532 9.75641C15.9647 9.5298 15.8431 9.33629 15.6883 9.17599C15.5391 9.01569 15.3566 8.89131 15.1411 8.80287C14.9255 8.70891 14.6767 8.66191 14.3948 8.66191H9.53598C9.24853 8.66191 9.03019 8.73654 8.88093 8.88579C8.73169 9.03504 8.65707 9.25061 8.65707 9.53254V18.3962H6.50125V9.53254C6.50125 8.97975 6.60075 8.50991 6.79975 8.12296C7.00428 7.73603 7.25579 7.42371 7.55428 7.18602C7.85831 6.94832 8.18721 6.77696 8.54098 6.67194C8.89475 6.56139 9.22089 6.5061 9.51938 6.5061H14.3948C14.8813 6.5061 15.318 6.56968 15.7049 6.69681C16.0918 6.81842 16.4318 6.98425 16.7248 7.19431C17.0232 7.39883 17.2748 7.63653 17.4793 7.90739C17.6894 8.17824 17.8607 8.46292 17.9933 8.76142C18.1315 9.05439 18.2311 9.35288 18.2918 9.65688C18.3527 9.95537 18.3831 10.2373 18.3831 10.5026V11.481ZM32.1139 10.5026C32.1139 10.9946 32.0532 11.434 31.9315 11.821C31.8098 12.2079 31.6441 12.5507 31.434 12.8491C31.2295 13.1422 30.9918 13.3937 30.7209 13.6037C30.45 13.8138 30.1654 13.9878 29.8669 14.126C29.5739 14.2588 29.2754 14.3555 28.9715 14.4162C28.6729 14.4771 28.391 14.5074 28.1257 14.5074L32.628 18.3962H29.2948L24.8008 14.5074H23.2502V12.3517H28.1257C28.3965 12.3295 28.6425 12.2742 28.8636 12.1858C29.0902 12.0919 29.2837 11.9674 29.444 11.8127C29.6098 11.6579 29.737 11.4727 29.8254 11.2572C29.9139 11.036 29.9581 10.7845 29.9581 10.5026V9.14283C29.9581 9.02122 29.9415 8.93001 29.9083 8.86921C29.8807 8.80287 29.842 8.75589 29.7923 8.72825C29.7481 8.69508 29.6983 8.67574 29.6431 8.67021C29.5932 8.66468 29.5463 8.66191 29.5021 8.66191H22.3879V18.3962H20.2321V7.5923C20.2321 7.44306 20.2598 7.30209 20.315 7.16943C20.3703 7.03676 20.4449 6.92069 20.5389 6.82119C20.6383 6.72169 20.7545 6.6443 20.8871 6.58903C21.0198 6.53375 21.1635 6.5061 21.3182 6.5061H29.5021C29.983 6.5061 30.3893 6.59455 30.7209 6.77143C31.0526 6.9428 31.3207 7.16114 31.5252 7.42647C31.7352 7.68627 31.8845 7.96819 31.973 8.27221C32.0669 8.57624 32.1139 8.86091 32.1139 9.12624V10.5026ZM18.2007 33.4906H16.0448V30.5719H8.46636V33.4906H6.31055V27.5455C6.31055 26.6776 6.4598 25.8789 6.75829 25.1492C7.05679 24.4196 7.47137 23.7922 8.00203 23.2671C8.53269 22.7419 9.16008 22.3329 9.88419 22.0399C10.6083 21.747 11.3988 21.6005 12.2556 21.6005H17.1145C17.2637 21.6005 17.4047 21.6281 17.5373 21.6834C17.67 21.7387 17.7861 21.816 17.8856 21.9156C17.985 22.015 18.0625 22.1311 18.1178 22.2638C18.1731 22.3964 18.2007 22.5373 18.2007 22.6867V33.4906ZM8.46636 28.4161H16.0448V23.7562H12.2556C12.1893 23.7562 12.0483 23.7673 11.8328 23.7894C11.6227 23.806 11.3767 23.853 11.0948 23.9304C10.8184 24.0077 10.5254 24.1266 10.2159 24.2869C9.90636 24.4473 9.62164 24.6683 9.36185 24.9503C9.10205 25.2322 8.88646 25.5859 8.7151 26.0116C8.54927 26.4317 8.46636 26.943 8.46636 27.5455V28.4161Z" fill="black"/>
</g>
</mask>
<g mask="url(#mask0_3152_281)">
<path id="Vector_4" d="M17.7043 13.8275L17.6522 13.7909L17.6521 13.7911L17.7043 13.8275ZM16.1372 15.0962L16.1114 15.0379L16.1109 15.0381L16.1372 15.0962ZM15.2418 15.3863L15.2292 15.3239H15.229L15.2418 15.3863ZM9.52054 15.4775H9.45686V15.5412H9.52054V15.4775ZM9.52054 13.3217V13.258H9.45686V13.3217H9.52054ZM14.396 13.3217V13.3854H14.3986L14.4011 13.3852L14.396 13.3217ZM15.1422 13.1559L15.1659 13.215L15.1666 13.2146L15.1422 13.1559ZM16.0957 12.2272L16.1547 12.2514L16.1549 12.2509L16.0957 12.2272ZM16.2285 10.5026H16.292V10.4994L16.2918 10.4962L16.2285 10.5026ZM15.6895 9.17593L15.6429 9.21932L15.6437 9.22015L15.6895 9.17593ZM15.1422 8.80281L15.1168 8.86117L15.1174 8.86145L15.1181 8.86171L15.1422 8.80281ZM8.65823 18.3962V18.4598H8.72189V18.3962H8.65823ZM6.50241 18.3962H6.43875V18.4598H6.50241V18.3962ZM6.80091 8.1229L6.74462 8.09316L6.7443 8.09379L6.80091 8.1229ZM7.55544 7.18596L7.51624 7.1358L7.51579 7.13616L7.55544 7.18596ZM8.54214 6.67188L8.56026 6.73291L8.56113 6.73265L8.54214 6.67188ZM15.7061 6.69675L15.6862 6.75724L15.687 6.75749L15.7061 6.69675ZM16.7259 7.19425L16.6888 7.24599L16.6894 7.24638L16.69 7.24676L16.7259 7.19425ZM17.4804 7.90733L17.4297 7.94568L17.4302 7.94634L17.4804 7.90733ZM17.9945 8.76135L17.9364 8.78721L17.9367 8.78786L17.937 8.78851L17.9945 8.76135ZM18.293 9.65682L18.2306 9.66936V9.66955L18.293 9.65682ZM18.3205 11.481C18.3205 11.9679 18.2603 12.4007 18.1411 12.7803L18.2625 12.8184C18.3865 12.4242 18.4479 11.9781 18.4479 11.481H18.3205ZM18.1411 12.7803C18.0212 13.1616 17.8582 13.4983 17.6522 13.7909L17.7564 13.8642C17.9706 13.5597 18.1392 13.211 18.2625 12.8184L18.1411 12.7803ZM17.6521 13.7911C17.4511 14.079 17.2178 14.3258 16.9522 14.5317L17.0303 14.6324C17.3064 14.4182 17.5485 14.1619 17.7565 13.864L17.6521 13.7911ZM16.9522 14.5317C16.6853 14.7388 16.405 14.9075 16.1114 15.0379L16.1631 15.1543C16.4665 15.0195 16.7555 14.8454 17.0303 14.6324L16.9522 14.5317ZM16.1109 15.0381C15.8222 15.1689 15.5284 15.2641 15.2292 15.3239L15.2542 15.4487C15.5632 15.3869 15.8663 15.2887 16.1635 15.1541L16.1109 15.0381ZM15.229 15.3239C14.9341 15.384 14.6565 15.4139 14.396 15.4139V15.5412C14.6662 15.5412 14.9523 15.5102 15.2544 15.4487L15.229 15.3239ZM14.396 15.4139H9.52054V15.5412H14.396V15.4139ZM9.58422 15.4775V13.3217H9.45686V15.4775H9.58422ZM9.52054 13.3854H14.396V13.258H9.52054V13.3854ZM14.4011 13.3852C14.6828 13.3627 14.938 13.3062 15.1659 13.215L15.1186 13.0968C14.9043 13.1825 14.662 13.2365 14.3909 13.2582L14.4011 13.3852ZM15.1666 13.2146C15.3999 13.1179 15.6003 12.9895 15.7669 12.8286L15.6785 12.737C15.5244 12.8857 15.3379 13.0059 15.1178 13.0971L15.1666 13.2146ZM15.7669 12.8286C15.9337 12.6674 16.063 12.4747 16.1547 12.2514L16.0369 12.203C15.9516 12.4109 15.8321 12.5886 15.6785 12.737L15.7669 12.8286ZM16.1549 12.2509C16.2468 12.0212 16.292 11.7642 16.292 11.481H16.1648C16.1648 11.7506 16.1217 11.9911 16.0367 12.2036L16.1549 12.2509ZM16.292 11.481V10.5026H16.1648V11.481H16.292ZM16.2918 10.4962C16.2636 10.2202 16.2044 9.96578 16.1137 9.73323L15.995 9.77946C16.0811 10.0002 16.138 10.2432 16.1651 10.5091L16.2918 10.4962ZM16.1137 9.73323C16.0224 9.49946 15.8964 9.29862 15.7353 9.13171L15.6437 9.22015C15.792 9.37385 15.9093 9.55993 15.995 9.77946L16.1137 9.73323ZM15.7361 9.13255C15.5802 8.96509 15.39 8.83562 15.1664 8.74391L15.1181 8.86171C15.3257 8.94689 15.5003 9.06617 15.6429 9.21932L15.7361 9.13255ZM15.1677 8.74445C14.9426 8.64636 14.685 8.59819 14.396 8.59819V8.72552C14.6708 8.72552 14.9106 8.77132 15.1168 8.86117L15.1677 8.74445ZM14.396 8.59819H9.53714V8.72552H14.396V8.59819ZM9.53714 8.59819C9.23907 8.59819 9.00207 8.67572 8.83708 8.84071L8.92711 8.93074C9.06062 8.79723 9.26031 8.72552 9.53714 8.72552V8.59819ZM8.83708 8.84071C8.67231 9.00549 8.59457 9.23952 8.59457 9.53248H8.72189C8.72189 9.26159 8.79339 9.06447 8.92711 8.93074L8.83708 8.84071ZM8.59457 9.53248V18.3962H8.72189V9.53248H8.59457ZM8.65823 18.3325H6.50241V18.4598H8.65823V18.3325ZM6.56608 18.3962V9.53248H6.43875V18.3962H6.56608ZM6.56608 9.53248C6.56608 8.98716 6.66424 8.52785 6.85753 8.15201L6.7443 8.09379C6.53958 8.49184 6.43875 8.97224 6.43875 9.53248H6.56608ZM6.8572 8.15266C7.05822 7.77234 7.30441 7.46723 7.5951 7.23576L7.51579 7.13616C7.20949 7.38006 6.95265 7.69959 6.74462 8.09316L6.8572 8.15266ZM7.59466 7.23611C7.89269 7.0031 8.21448 6.83556 8.56026 6.73291L8.52403 6.61084C8.16225 6.71825 7.82625 6.89341 7.51624 7.1358L7.59466 7.23611ZM8.56113 6.73265C8.91018 6.62356 9.22983 6.56971 9.52054 6.56971V6.44238C9.21427 6.44238 8.88165 6.49908 8.52315 6.61112L8.56113 6.73265ZM9.52054 6.56971H14.396V6.44238H9.52054V6.56971ZM14.396 6.56971C14.877 6.56971 15.3068 6.63258 15.6862 6.75724L15.7259 6.63627C15.3315 6.50667 14.8879 6.44238 14.396 6.44238V6.56971ZM15.687 6.75749C16.0683 6.87732 16.402 7.04033 16.6888 7.24599L16.763 7.14251C16.4639 6.92806 16.1177 6.7594 15.7252 6.63602L15.687 6.75749ZM16.69 7.24676C16.9832 7.44766 17.2295 7.68067 17.4297 7.94568L17.5313 7.86896C17.3223 7.59226 17.0657 7.34988 16.7619 7.14173L16.69 7.24676ZM17.4302 7.94634C17.6372 8.21334 17.8059 8.49363 17.9364 8.78721L18.0527 8.7355C17.9179 8.43209 17.7438 8.14302 17.5307 7.86831L17.4302 7.94634ZM17.937 8.78851C18.0731 9.07701 18.1708 9.3706 18.2306 9.66936L18.3554 9.64436C18.2936 9.33504 18.1924 9.03163 18.0521 8.73419L17.937 8.78851ZM18.2306 9.66955C18.2907 9.96446 18.3205 10.2421 18.3205 10.5026H18.4479C18.4479 10.2324 18.417 9.94625 18.3554 9.64417L18.2306 9.66955ZM18.3205 10.5026V11.481H18.4479V10.5026H18.3205ZM31.4352 12.8491L31.3831 12.8125L31.383 12.8127L31.4352 12.8491ZM29.8681 14.126L29.8943 14.184L29.8948 14.1838L29.8681 14.126ZM28.9726 14.4162L28.9601 14.3538H28.9599L28.9726 14.4162ZM28.1269 14.5074V14.4437H27.9557L28.0853 14.5556L28.1269 14.5074ZM32.6291 18.3962V18.4598H32.8003L32.6707 18.3479L32.6291 18.3962ZM29.2959 18.3962L29.2543 18.4443L29.2722 18.4598H29.2959V18.3962ZM24.802 14.5074L24.8436 14.4593L24.8256 14.4437H24.802V14.5074ZM23.2514 14.5074H23.1877V14.5711H23.2514V14.5074ZM23.2514 12.3516V12.2879H23.1877V12.3516H23.2514ZM28.1269 12.3516V12.4153H28.1294L28.132 12.415L28.1269 12.3516ZM28.8648 12.1858L28.8885 12.2449L28.8891 12.2446L28.8648 12.1858ZM29.4452 11.8127L29.4018 11.7661L29.401 11.7668L29.4452 11.8127ZM29.8266 11.2571L29.8855 11.2813L29.8857 11.2808L29.8266 11.2571ZM29.9095 8.86915L29.8507 8.89363L29.852 8.8967L29.8537 8.89963L29.9095 8.86915ZM29.7935 8.72818L29.7553 8.77912L29.7587 8.78172L29.7625 8.78384L29.7935 8.72818ZM29.6442 8.67015L29.6371 8.73342L29.6379 8.7335L29.6442 8.67015ZM22.389 8.66185V8.59819H22.3254V8.66185H22.389ZM22.389 18.3962V18.4598H22.4527V18.3962H22.389ZM20.2333 18.3962H20.1696V18.4598H20.2333V18.3962ZM20.5401 6.82113L20.4951 6.77611L20.4944 6.77675L20.4937 6.77741L20.5401 6.82113ZM30.722 6.77137L30.6921 6.82755L30.6929 6.82794L30.722 6.77137ZM31.5264 7.42641L31.4759 7.46528L31.4764 7.46586L31.4769 7.46644L31.5264 7.42641ZM31.9741 8.27215L31.913 8.28994L31.9133 8.29095L31.9741 8.27215ZM32.0514 10.5026C32.0514 10.9894 31.9912 11.4223 31.872 11.8018L31.9934 11.84C32.1173 11.4458 32.1787 10.9997 32.1787 10.5026H32.0514ZM31.872 11.8018C31.752 12.1832 31.589 12.5199 31.3831 12.8125L31.4872 12.8858C31.7015 12.5813 31.8701 12.2326 31.9934 11.84L31.872 11.8018ZM31.383 12.8127C31.182 13.1006 30.9487 13.3474 30.6831 13.5533L30.7611 13.6539C31.0372 13.4397 31.2793 13.1835 31.4873 12.8855L31.383 12.8127ZM30.6831 13.5533C30.4158 13.7606 30.1353 13.9321 29.8413 14.0682L29.8948 14.1838C30.1978 14.0435 30.4866 13.8668 30.7611 13.6539L30.6831 13.5533ZM29.8418 14.068C29.5531 14.1987 29.2592 14.294 28.9601 14.3538L28.9851 14.4786C29.294 14.4168 29.5971 14.3186 29.8943 14.184L29.8418 14.068ZM28.9599 14.3538C28.665 14.4139 28.3873 14.4437 28.1269 14.4437V14.5711C28.397 14.5711 28.6832 14.5401 28.9853 14.4786L28.9599 14.3538ZM28.0853 14.5556L32.5875 18.4444L32.6707 18.3479L28.1685 14.4593L28.0853 14.5556ZM32.6291 18.3325H29.2959V18.4598H32.6291V18.3325ZM29.3376 18.348L24.8436 14.4593L24.7603 14.5556L29.2543 18.4443L29.3376 18.348ZM24.802 14.4437H23.2514V14.5711H24.802V14.4437ZM23.3151 14.5074V12.3516H23.1877V14.5074H23.3151ZM23.2514 12.4153H28.1269V12.2879H23.2514V12.4153ZM28.132 12.415C28.4084 12.3925 28.6606 12.3361 28.8885 12.2449L28.8411 12.1266C28.6267 12.2125 28.387 12.2665 28.1217 12.2881L28.132 12.415ZM28.8891 12.2446C29.1224 12.1479 29.3228 12.0193 29.4894 11.8584L29.401 11.7668C29.247 11.9156 29.0604 12.0358 28.8403 12.127L28.8891 12.2446ZM29.4887 11.8592C29.6614 11.6979 29.7937 11.5051 29.8855 11.2813L29.7677 11.2329C29.6826 11.4403 29.5607 11.6177 29.4018 11.7661L29.4887 11.8592ZM29.8857 11.2808C29.9776 11.0509 30.0229 10.7912 30.0229 10.5026H29.8956C29.8956 10.7779 29.8524 11.0212 29.7675 11.2335L29.8857 11.2808ZM30.0229 10.5026V9.14277H29.8956V10.5026H30.0229ZM30.0229 9.14277C30.0229 9.01745 30.0062 8.91345 29.9654 8.83866L29.8537 8.89963C29.8791 8.94645 29.8956 9.02486 29.8956 9.14277H30.0229ZM29.9683 8.84466C29.9366 8.76864 29.8896 8.70879 29.8243 8.67253L29.7625 8.78384C29.7968 8.80286 29.8271 8.83699 29.8507 8.89363L29.9683 8.84466ZM29.8317 8.67726C29.7781 8.63709 29.7173 8.61348 29.6505 8.6068L29.6379 8.7335C29.6817 8.73787 29.7203 8.75296 29.7553 8.77912L29.8317 8.67726ZM29.6512 8.60687C29.5994 8.60112 29.5501 8.59819 29.5033 8.59819V8.72552C29.5448 8.72552 29.5894 8.72812 29.6371 8.73342L29.6512 8.60687ZM29.5033 8.59819H22.389V8.72552H29.5033V8.59819ZM22.3254 8.66185V18.3962H22.4527V8.66185H22.3254ZM22.389 18.3325H20.2333V18.4598H22.389V18.3325ZM20.297 18.3962V7.59224H20.1696V18.3962H20.297ZM20.297 7.59224C20.297 7.45107 20.323 7.31847 20.375 7.19385L20.2574 7.14489C20.1987 7.28561 20.1696 7.43492 20.1696 7.59224H20.297ZM20.375 7.19385C20.4274 7.06794 20.4979 6.95846 20.5863 6.86484L20.4937 6.77741C20.3942 6.88279 20.3155 7.00547 20.2574 7.14489L20.375 7.19385ZM20.5851 6.86615C20.6786 6.77265 20.7876 6.69987 20.9128 6.64773L20.8638 6.53019C20.7237 6.5886 20.6005 6.67061 20.4951 6.77611L20.5851 6.86615ZM20.9128 6.64773C21.0371 6.59592 21.1724 6.56971 21.3194 6.56971V6.44238C21.157 6.44238 21.0048 6.47145 20.8638 6.53019L20.9128 6.64773ZM21.3194 6.56971H29.5033V6.44238H21.3194V6.56971ZM29.5033 6.56971C29.9766 6.56971 30.372 6.65676 30.6921 6.82755L30.752 6.7152C30.4089 6.53221 29.9918 6.44238 29.5033 6.44238V6.56971ZM30.6929 6.82794C31.0172 6.99551 31.2777 7.20813 31.4759 7.46528L31.5768 7.38754C31.3659 7.11403 31.0903 6.88996 30.7513 6.71482L30.6929 6.82794ZM31.4769 7.46644C31.6819 7.72003 31.827 7.99448 31.913 8.28994L32.0353 8.25437C31.9443 7.94179 31.7909 7.65239 31.5759 7.38638L31.4769 7.46644ZM31.9133 8.29095C32.0057 8.59006 32.0514 8.86834 32.0514 9.12618H32.1787C32.1787 8.85335 32.1304 8.56229 32.035 8.25335L31.9133 8.29095ZM32.0514 9.12618V10.5026H32.1787V9.12618H32.0514ZM18.2019 33.4905V33.5542H18.2654V33.4905H18.2019ZM16.046 33.4905H15.9823V33.5542H16.046V33.4905ZM16.046 30.5718H16.1097V30.5082H16.046V30.5718ZM8.46752 30.5718V30.5082H8.40386V30.5718H8.46752ZM8.46752 33.4905V33.5542H8.53118V33.4905H8.46752ZM6.31171 33.4905H6.24805V33.5542H6.31171V33.4905ZM8.46752 28.4161H8.40386V28.4797H8.46752V28.4161ZM16.046 28.4161V28.4797H16.1097V28.4161H16.046ZM16.046 23.7562H16.1097V23.6926H16.046V23.7562ZM11.8339 23.7894L11.8389 23.8529L11.8397 23.8528L11.8403 23.8527L11.8339 23.7894ZM11.0959 23.9303L11.0791 23.8689L11.0787 23.869L11.0959 23.9303ZM8.71626 26.0115L8.65721 25.9878L8.65705 25.9881L8.71626 26.0115ZM18.2019 33.4268H16.046V33.5542H18.2019V33.4268ZM16.1097 33.4905V30.5718H15.9823V33.4905H16.1097ZM16.046 30.5082H8.46752V30.6355H16.046V30.5082ZM8.40386 30.5718V33.4905H8.53118V30.5718H8.40386ZM8.46752 33.4268H6.31171V33.5542H8.46752V33.4268ZM6.37538 33.4905V27.5454H6.24805V33.4905H6.37538ZM6.37538 27.5454C6.37538 26.685 6.52331 25.8946 6.81838 25.1733L6.70054 25.1251C6.3986 25.8631 6.24805 26.6701 6.24805 27.5454H6.37538ZM6.81838 25.1733C7.11381 24.4511 7.52374 23.8311 8.04797 23.3123L7.95841 23.2217C7.42132 23.7532 7.00208 24.3879 6.70054 25.1251L6.81838 25.1733ZM8.04797 23.3123C8.57237 22.7933 9.19257 22.3888 9.90922 22.0989L9.86148 21.9808C9.12992 22.2768 8.49534 22.6904 7.95841 23.2217L8.04797 23.3123ZM9.90922 22.0989C10.6251 21.8093 11.4073 21.6641 12.2568 21.6641V21.5367C11.3926 21.5367 10.5939 21.6845 9.86148 21.9808L9.90922 22.0989ZM12.2568 21.6641H17.1156V21.5367H12.2568V21.6641ZM17.1156 21.6641C17.2568 21.6641 17.3894 21.6901 17.514 21.7421L17.563 21.6246C17.4222 21.5659 17.273 21.5367 17.1156 21.5367V21.6641ZM17.514 21.7421C17.6391 21.7942 17.7483 21.867 17.8418 21.9605L17.9318 21.8705C17.8263 21.7649 17.7032 21.6829 17.563 21.6246L17.514 21.7421ZM17.8418 21.9605C17.9353 22.054 18.008 22.163 18.0602 22.2882L18.1777 22.2393C18.1192 22.0991 18.0372 21.976 17.9318 21.8705L17.8418 21.9605ZM18.0602 22.2882C18.112 22.4128 18.1382 22.5454 18.1382 22.6866H18.2654C18.2654 22.5293 18.2363 22.3799 18.1777 22.2393L18.0602 22.2882ZM18.1382 22.6866V33.4905H18.2654V22.6866H18.1382ZM8.46752 28.4797H16.046V28.3524H8.46752V28.4797ZM16.1097 28.4161V23.7562H15.9823V28.4161H16.1097ZM16.046 23.6926H12.2568V23.8198H16.046V23.6926ZM12.2568 23.6926C12.1866 23.6926 12.0422 23.704 11.8274 23.7261L11.8403 23.8527C12.0568 23.8305 12.1943 23.8198 12.2568 23.8198V23.6926ZM11.8288 23.7259C11.6137 23.7429 11.3636 23.7909 11.0791 23.8689L11.1128 23.9917C11.3922 23.915 11.634 23.869 11.8389 23.8529L11.8288 23.7259ZM11.0787 23.869C10.7974 23.9478 10.5003 24.0684 10.1878 24.2303L10.2463 24.3434C10.5528 24.1846 10.8417 24.0676 11.1131 23.9916L11.0787 23.869ZM10.1878 24.2303C9.87101 24.3944 9.58054 24.6202 9.3162 24.907L9.40982 24.9933C9.66507 24.7163 9.94393 24.4999 10.2463 24.3434L10.1878 24.2303ZM9.3162 24.907C9.05025 25.1956 8.8309 25.5563 8.65721 25.9878L8.77532 26.0353C8.94436 25.6154 9.15615 25.2686 9.40982 24.9933L9.3162 24.907ZM8.65705 25.9881C8.48748 26.4177 8.40386 26.9375 8.40386 27.5454H8.53118C8.53118 26.9484 8.61339 26.4455 8.77548 26.0348L8.65705 25.9881ZM8.40386 27.5454V28.4161H8.53118V27.5454H8.40386Z" fill="#F96464" fill-opacity="0.4"/>
</g>
</g>
<path id="Vector_5" opacity="0.4" d="M25.4709 20.8491H28.3011L23.5841 33.4906H20.7539L25.4709 20.8491Z" fill="white"/>
<path id="Vector_6" opacity="0.15" d="M30.1896 20.8491H33.0198L28.3028 33.4906H25.4727L30.1896 20.8491Z" fill="white"/>
<path id="Vector_7" d="M20.7541 20.8491H23.5843L18.8673 33.4906H16.0371L20.7541 20.8491Z" fill="white"/>
<path id="Vector_8" d="M1.13281 17.3567V4.77806C1.13281 2.76445 2.76517 1.13208 4.77878 1.13208H15.5344" stroke="#F96464" stroke-opacity="0.4" stroke-width="2" stroke-linecap="round"/>
<path id="Vector_9" d="M1.13281 23.0078V35.2219C1.13281 37.2355 2.76517 38.8678 4.77878 38.8678H16.5371" stroke="#F96464" stroke-opacity="0.4" stroke-width="2" stroke-linecap="round"/>
<path id="Vector_10" d="M36.681 13.4373V4.77805C36.681 2.76444 35.0486 1.13208 33.0349 1.13208H21.459" stroke="#F96464" stroke-opacity="0.4" stroke-width="2" stroke-linecap="round"/>
<path id="Vector_11" d="M36.6797 30.3911V35.2221C36.6797 37.2356 35.0473 38.868 33.0336 38.868H22.0957" stroke="#F96464" stroke-opacity="0.4" stroke-width="2" stroke-linecap="round"/>
<path id="Vector_12" d="M37.7735 19.1797C37.7735 18.5756 37.2838 18.0859 36.6797 18.0859C36.0756 18.0859 35.5859 18.5756 35.5859 19.1797V24.5575C35.5859 25.1616 36.0756 25.6513 36.6797 25.6513C37.2838 25.6513 37.7735 25.1616 37.7735 24.5575V19.1797Z" fill="#F96464" fill-opacity="0.4"/>
</g>
<defs>
<clipPath id="clip0_3152_281">
<rect width="37.8302" height="40" fill="white"/>
</clipPath>
</defs>
</svg>
