<svg width="128" height="129" viewBox="0 0 128 129" fill="none" xmlns="http://www.w3.org/2000/svg">
<g id="solar:rocket-2-line-duotone">
<g id="Group">
<path id="Vector" d="M106.593 47.9399L79.4674 74.9639L85.1154 80.6332L112.246 53.6199L106.593 47.9399ZM59.6221 74.9586L53.2487 68.6119L47.6007 74.2812L53.9741 80.6279L59.6221 74.9586ZM53.2487 48.8999L80.3741 21.8866L74.7314 16.2172L47.6007 43.2306L53.2487 48.8999ZM96.6727 15.1666H99.3127V7.16658H96.6727V15.1666ZM113.334 29.1132V31.7426H121.334V29.1132H113.334ZM99.3127 15.1666C103.675 15.1666 106.539 15.1772 108.667 15.4599C110.683 15.7266 111.419 16.1799 111.873 16.6332L117.515 10.9586C115.329 8.78258 112.625 7.91858 109.729 7.52925C106.95 7.15591 103.446 7.16658 99.3127 7.16658V15.1666ZM121.334 29.1132C121.334 24.9959 121.345 21.5079 120.966 18.7346C120.577 15.8439 119.707 13.1399 117.515 10.9586L111.873 16.6279C112.321 17.0759 112.769 17.8012 113.041 19.8012C113.323 21.9186 113.334 24.7719 113.334 29.1132H121.334ZM53.2487 68.6119C50.1661 65.5452 48.1394 63.5186 46.8434 61.8226C45.6114 60.2173 45.4141 59.3853 45.4141 58.7559H37.4141C37.4141 61.8493 38.7154 64.3719 40.4914 66.6866C42.1981 68.9106 44.6781 71.3692 47.6007 74.2812L53.2487 68.6119ZM53.9741 80.6279C56.8967 83.5399 59.3714 86.0146 61.6007 87.7106C63.9261 89.4759 66.4541 90.7666 69.5421 90.7666V82.7666C68.8967 82.7666 68.0541 82.5639 66.4434 81.3372C64.7367 80.0466 62.7101 78.0306 59.6221 74.9586L53.9741 80.6279ZM112.246 53.6199C115.921 49.9613 118.587 47.3906 120.001 44.0092L112.614 40.9372C111.963 42.5052 110.731 43.8279 106.593 47.9506L112.246 53.6199ZM113.334 31.7479C113.334 37.5772 113.265 39.3746 112.614 40.9372L120.001 44.0092C121.403 40.6279 121.334 36.9212 121.334 31.7479H113.334ZM80.3741 21.8866C84.5127 17.7639 85.8461 16.5426 87.4247 15.8866L84.3741 8.49991C80.9821 9.89725 78.4061 12.5586 74.7314 16.2172L80.3741 21.8866ZM96.6727 7.16658C91.4727 7.16658 87.7661 7.09725 84.3741 8.49458L87.4247 15.8866C89.0034 15.2359 90.8221 15.1666 96.6727 15.1666V7.16658ZM79.4621 74.9586C77.0887 77.3266 75.3181 79.0866 73.7981 80.3986C72.2781 81.7106 71.2914 82.3079 70.5714 82.5746L73.3287 90.0839C75.4034 89.3213 77.2487 87.9826 79.0247 86.4573C80.8061 84.9106 82.8061 82.9212 85.1047 80.6279L79.4621 74.9586ZM70.5714 82.5746C70.2429 82.7009 69.894 82.766 69.5421 82.7666V90.7666C70.8647 90.7666 72.1181 90.5319 73.3287 90.0839L70.5714 82.5746ZM47.6007 43.2306C45.3554 45.4706 43.3981 47.4172 41.8727 49.1559C40.3527 50.8839 39.0247 52.6759 38.2247 54.6599L45.6434 57.6466C45.9421 56.9106 46.5714 55.9293 47.8834 54.4306C49.1901 52.9426 50.9287 51.2092 53.2487 48.8999L47.6007 43.2306ZM38.2247 54.6599C37.6918 55.9599 37.4165 57.351 37.4141 58.7559H45.4141C45.4141 58.4092 45.4727 58.0626 45.6434 57.6466L38.2247 54.6599Z" fill="#F96464"/>
<path id="Vector_2" opacity="0.5" d="M41.1151 55.3427L43.9417 52.5107V52.5L41.1151 55.3427ZM61.003 36.74C61.4449 37.0386 61.9419 37.2458 62.465 37.3494C62.9881 37.4531 63.5266 37.4511 64.0489 37.3436C64.5712 37.2361 65.0667 37.0253 65.5063 36.7235C65.946 36.4217 66.3208 36.0351 66.6089 35.5863C66.8969 35.1376 67.0923 34.6358 67.1836 34.1104C67.2748 33.585 67.2601 33.0467 67.1403 32.5271C67.0205 32.0075 66.798 31.5171 66.486 31.0847C66.1739 30.6523 65.7785 30.2867 65.3231 30.0094L61.003 36.74ZM73.2484 87.6414L70.4217 90.468C70.4837 90.5305 70.5478 90.591 70.6137 90.6494L73.2484 87.6414ZM98.3844 62.9374C97.7941 62.0781 96.8916 61.4832 95.8692 61.2794C94.8468 61.0757 93.7853 61.2791 92.9106 61.8464C92.036 62.4138 91.4174 63.3001 91.1866 64.3168C90.9559 65.3334 91.1311 66.4 91.675 67.2894L98.3844 62.9374ZM75.6697 89.764L78.4964 86.932L78.4057 86.8414L78.3097 86.756L75.6697 89.764ZM74.7737 83.508C74.4046 83.1262 73.963 82.8217 73.4749 82.6123C72.9868 82.4028 72.4619 82.2928 71.9308 82.2884C71.3996 82.284 70.873 82.3855 70.3815 82.5868C69.89 82.7882 69.4435 83.0854 69.0681 83.4612C68.6927 83.8369 68.3959 84.2837 68.195 84.7753C67.9942 85.267 67.8932 85.7938 67.8981 86.3249C67.9029 86.856 68.0135 87.3808 68.2234 87.8687C68.4332 88.3567 68.7382 88.7979 69.1204 89.1667L74.7737 83.508ZM39.0991 58.9907C39.8538 59.719 40.8644 60.1217 41.9132 60.1121C42.962 60.1025 43.965 59.6813 44.7063 58.9393C45.4476 58.1974 45.8678 57.1939 45.8764 56.1451C45.885 55.0963 45.4814 54.0861 44.7524 53.332L39.0991 58.9907ZM65.3231 30.0094L62.4004 28.1267L58.0804 34.8574L60.9977 36.7347L65.3231 30.0094ZM62.4004 28.1267C59.5257 26.276 57.1791 24.7667 55.1524 23.6734C53.0777 22.5587 51.0991 21.7534 48.9017 21.4227L47.7284 29.3374C48.6671 29.476 49.7231 29.8387 51.3604 30.724C53.0511 31.6307 55.0937 32.9427 58.0804 34.8574L62.4004 28.1267ZM28.4004 41.9187C31.0137 39.316 33.8084 36.532 36.3151 34.2494C37.5684 33.108 38.7044 32.132 39.6751 31.3854C40.6991 30.596 41.3124 30.2494 41.5577 30.1427L38.4964 22.7507C37.1708 23.3591 35.9258 24.1294 34.7897 25.044C33.5791 25.9827 32.2617 27.124 30.9284 28.3347C28.1472 30.9128 25.423 33.5516 22.7577 36.2494L28.4004 41.9187ZM48.9071 21.428C45.3811 20.9196 41.7832 21.3767 38.4964 22.7507L41.5577 30.1427C43.5079 29.3221 45.6442 29.0456 47.7391 29.3427L48.9071 21.428ZM25.3124 48.6067L27.0671 49.3L30.0111 41.8654L28.2511 41.172L25.3124 48.6067ZM33.8351 53.7374L38.2937 58.1747L43.9364 52.5L39.4777 48.0627L33.8351 53.7374ZM27.0671 49.3L27.5897 49.508L30.6297 42.1054L30.0111 41.8654L27.0671 49.3ZM39.4777 48.0627L39.0031 47.5934L33.4351 53.3374L33.8351 53.732L39.4777 48.0627ZM27.5844 49.5027C29.7657 50.404 31.7497 51.7 33.4351 53.3374L39.0031 47.5934C36.5854 45.2494 33.7437 43.3869 30.6297 42.1054L27.5844 49.5027ZM22.7577 36.2494C21.8707 37.1331 21.2177 38.2185 20.8576 39.4177C20.4975 40.6169 20.4417 41.887 20.6952 43.1131C20.9487 44.3393 21.5035 45.4831 22.3096 46.4413C23.1157 47.3994 24.1477 48.1418 25.3124 48.6014L28.2564 41.1614C28.3254 41.1908 28.3862 41.2368 28.4334 41.2952C28.4805 41.3536 28.5126 41.4227 28.5269 41.4964C28.5411 41.5701 28.537 41.6462 28.5149 41.718C28.4929 41.7898 28.4535 41.855 28.4004 41.908L22.7577 36.2494ZM91.6804 67.284L93.563 70.1907L100.278 65.8387L98.3897 62.9267L91.6804 67.284ZM86.4804 99.7L86.091 100.084L91.7337 105.753L92.1231 105.364L86.4804 99.7ZM93.563 70.1907C95.483 73.156 96.8057 75.1934 97.7177 76.8734C98.6031 78.5 98.9604 79.5507 99.1044 80.4734L107.014 79.3C106.683 77.0974 105.867 75.124 104.747 73.06C103.654 71.0334 102.134 68.7027 100.278 65.8387L93.563 70.1907ZM92.1231 105.364C94.8312 102.71 97.4807 99.9961 100.07 97.2254C101.296 95.8974 102.432 94.5907 103.376 93.3854C104.262 92.2334 105.158 90.9427 105.686 89.684L98.3044 86.6014C98.1977 86.8414 97.8511 87.4547 97.051 88.4734C96.3044 89.4334 95.3284 90.5694 94.1817 91.8174C91.6714 94.4981 89.1037 97.1298 86.4804 99.7L92.1231 105.364ZM99.099 80.4734C99.3977 82.484 99.1417 84.6067 98.3044 86.6014L105.686 89.684C107.067 86.4066 107.526 82.8195 107.014 79.3L99.099 80.4734ZM78.315 86.7454L75.8884 84.6227L70.6191 90.6387L73.0457 92.7614L78.315 86.7454ZM87.4031 100.399C86.411 97.9134 85.803 96.3614 84.9924 94.8947L77.9844 98.7454C78.5017 99.684 78.9124 100.703 79.9737 103.364L87.4031 100.399ZM72.8591 92.5907C74.8857 94.612 75.6644 95.396 76.3257 96.2387L82.619 91.3C81.5897 89.9827 80.4004 88.8094 78.5017 86.9214L72.8591 92.5907ZM84.9977 94.8947C84.306 93.6337 83.507 92.4315 82.619 91.3L76.3311 96.2387C76.9497 97.028 77.5044 97.8654 77.9844 98.7454L84.9977 94.8947ZM86.091 100.084C86.1817 99.9946 86.2924 99.9281 86.4139 99.8901C86.5354 99.8521 86.6643 99.8436 86.7897 99.8654C86.9924 99.9027 87.2697 100.068 87.4031 100.399L79.9737 103.364C81.8937 108.185 88.1337 109.337 91.7337 105.753L86.091 100.084ZM76.0804 84.7987L74.7737 83.4974L69.1204 89.156L70.4271 90.4627L76.0804 84.7987ZM38.2884 58.164L39.1044 58.98L44.7577 53.3214L43.9417 52.5107L38.2884 58.164Z" fill="#F96464"/>
<path id="Vector_3" d="M29.5884 69.8333L20.5644 78.8466C19.4765 79.9321 18.0025 80.5417 16.4657 80.5417C14.9289 80.5417 13.4549 79.9321 12.3671 78.8466C11.8285 78.3091 11.4011 77.6706 11.1096 76.9678C10.818 76.265 10.668 75.5115 10.668 74.7506C10.668 73.9897 10.818 73.2362 11.1096 72.5334C11.4011 71.8305 11.8285 71.1921 12.3671 70.6546L13.1831 69.8333M59.0711 99.5399L50.0471 108.553C49.5093 109.091 49.0826 109.729 48.7915 110.431C48.5005 111.133 48.3506 111.886 48.3506 112.647C48.3506 113.407 48.5005 114.16 48.7915 114.862C49.0826 115.564 49.5093 116.203 50.0471 116.74C51.1358 117.826 52.6107 118.436 54.1484 118.436C55.6861 118.436 57.161 117.826 58.2497 116.74L59.0711 115.924M36.9911 92.0146L27.8711 100.932" stroke="#F96464" stroke-width="1.5" stroke-linecap="round"/>
<path id="Vector_4" opacity="0.5" d="M56.7101 92.1586C57.4391 91.4046 57.8428 90.3943 57.8341 89.3455C57.8255 88.2967 57.4053 87.2933 56.664 86.5513C55.9228 85.8093 54.9197 85.3882 53.8709 85.3786C52.8221 85.369 51.8115 85.7717 51.0568 86.5L56.7101 92.1586ZM39.8408 97.7106C39.1342 98.4689 38.7496 99.4718 38.7678 100.508C38.7861 101.544 39.2059 102.533 39.9388 103.266C40.6717 103.999 41.6604 104.419 42.6967 104.437C43.7329 104.455 44.7358 104.071 45.4941 103.364L39.8408 97.7106ZM41.9048 77.3693C42.2978 77.0031 42.613 76.5615 42.8316 76.0708C43.0502 75.5802 43.1678 75.0505 43.1773 74.5134C43.1867 73.9763 43.0879 73.4428 42.8868 72.9448C42.6856 72.4467 42.3861 71.9943 42.0063 71.6144C41.6265 71.2346 41.174 70.9352 40.676 70.734C40.1779 70.5328 39.6444 70.434 39.1073 70.4435C38.5702 70.4529 38.0406 70.5705 37.5499 70.7891C37.0592 71.0078 36.6176 71.323 36.2514 71.716L41.9048 77.3693ZM24.9608 83.0066C24.5786 83.3754 24.2736 83.8167 24.0638 84.3046C23.8539 84.7925 23.7433 85.3173 23.7384 85.8484C23.7336 86.3796 23.8345 86.9063 24.0354 87.398C24.2363 87.8897 24.5331 88.3364 24.9085 88.7122C25.2839 89.0879 25.7304 89.3851 26.2219 89.5865C26.7134 89.7878 27.24 89.8893 27.7711 89.8849C28.3023 89.8806 28.8272 89.7705 29.3153 89.5611C29.8034 89.3517 30.2449 89.0472 30.6141 88.6653L24.9608 83.0066ZM51.0514 86.5053L39.8408 97.7106L45.4941 103.364L56.7101 92.1586L51.0514 86.5053ZM36.2514 71.716L24.9608 83.0066L30.6141 88.6653L41.9048 77.3693L36.2514 71.716ZM65.9901 67.94C66.3729 67.5719 66.6786 67.1312 66.8893 66.6437C67.1 66.1562 67.2115 65.6316 67.2173 65.1006C67.2232 64.5695 67.1232 64.0426 66.9232 63.5506C66.7233 63.0586 66.4273 62.6114 66.0527 62.235C65.678 61.8585 65.2322 61.5605 64.7411 61.3582C64.2501 61.1559 63.7237 61.0535 63.1926 61.0568C62.6615 61.0601 62.1364 61.1692 61.6479 61.3776C61.1594 61.586 60.7173 61.8896 60.3474 62.2706L65.9901 67.94ZM56.4328 77.46L65.9901 67.94L60.3474 62.2706L50.7901 71.7906L56.4328 77.46ZM92.2088 43.236C91.2648 44.1723 89.9891 44.6977 88.6594 44.6977C87.3298 44.6977 86.0541 44.1723 85.1101 43.236L79.4621 48.9053C81.9054 51.3349 85.2111 52.6987 88.6568 52.6987C92.1025 52.6987 95.4081 51.3349 97.8514 48.9053L92.2088 43.236ZM85.1101 43.236C84.6468 42.7759 84.2791 42.2288 84.0282 41.626C83.7773 41.0233 83.6481 40.3768 83.6481 39.724C83.6481 39.0711 83.7773 38.4246 84.0282 37.8219C84.2791 37.2191 84.6468 36.672 85.1101 36.212L79.4621 30.5426C78.2522 31.746 77.2921 33.1766 76.6369 34.7523C75.9818 36.3279 75.6445 38.0175 75.6445 39.724C75.6445 41.4304 75.9818 43.12 76.6369 44.6957C77.2921 46.2713 78.2522 47.7019 79.4621 48.9053L85.1101 43.236ZM85.1101 36.212C86.0539 35.2772 87.3285 34.7528 88.6568 34.7528C89.9851 34.7528 91.2597 35.2772 92.2034 36.212L97.8568 30.5426C95.4132 28.1114 92.1064 26.7466 88.6594 26.7466C85.2124 26.7466 81.9057 28.1114 79.4621 30.5426L85.1101 36.212ZM92.2034 36.212C92.6667 36.672 93.0344 37.2191 93.2853 37.8219C93.5362 38.4246 93.6654 39.0711 93.6654 39.724C93.6654 40.3768 93.5362 41.0233 93.2853 41.626C93.0344 42.2288 92.6721 42.7759 92.2088 43.236L97.8514 48.9053C99.0613 47.7019 100.027 46.2713 100.682 44.6957C101.337 43.12 101.674 41.4304 101.674 39.724C101.674 38.0175 101.337 36.3279 100.682 34.7523C100.027 33.1766 99.0667 31.746 97.8568 30.5426L92.2034 36.212Z" fill="#F96464"/>
</g>
</g>
</svg>
