<svg width="64" height="64" viewBox="0 0 64 64" fill="none" xmlns="http://www.w3.org/2000/svg">
<g id="solar:window-frame-line-duotone">
<g id="Group">
<path id="Vector" d="M5.33203 32C5.33203 19.4293 5.33203 13.144 9.23603 9.23731C13.1454 5.33331 19.428 5.33331 31.9987 5.33331C44.5694 5.33331 50.8547 5.33331 54.7587 9.23731C58.6654 13.1466 58.6654 19.4293 58.6654 32C58.6654 44.5706 58.6654 50.856 54.7587 54.76C50.8574 58.6666 44.5694 58.6666 31.9987 58.6666C19.428 58.6666 13.1427 58.6666 9.23603 54.76C5.33203 50.8586 5.33203 44.5706 5.33203 32Z" stroke="#F96464" stroke-width="3"/>
<path id="Vector_2" d="M18.6654 16C18.6654 16.7072 18.3844 17.3855 17.8843 17.8856C17.3842 18.3857 16.7059 18.6666 15.9987 18.6666C15.2915 18.6666 14.6132 18.3857 14.1131 17.8856C13.613 17.3855 13.332 16.7072 13.332 16C13.332 15.2927 13.613 14.6145 14.1131 14.1144C14.6132 13.6143 15.2915 13.3333 15.9987 13.3333C16.7059 13.3333 17.3842 13.6143 17.8843 14.1144C18.3844 14.6145 18.6654 15.2927 18.6654 16ZM26.6654 16C26.6654 16.7072 26.3844 17.3855 25.8843 17.8856C25.3842 18.3857 24.7059 18.6666 23.9987 18.6666C23.2915 18.6666 22.6132 18.3857 22.1131 17.8856C21.613 17.3855 21.332 16.7072 21.332 16C21.332 15.2927 21.613 14.6145 22.1131 14.1144C22.6132 13.6143 23.2915 13.3333 23.9987 13.3333C24.7059 13.3333 25.3842 13.6143 25.8843 14.1144C26.3844 14.6145 26.6654 15.2927 26.6654 16ZM34.6654 16C34.6654 16.7072 34.3844 17.3855 33.8843 17.8856C33.3842 18.3857 32.7059 18.6666 31.9987 18.6666C31.2915 18.6666 30.6132 18.3857 30.1131 17.8856C29.613 17.3855 29.332 16.7072 29.332 16C29.332 15.2927 29.613 14.6145 30.1131 14.1144C30.6132 13.6143 31.2915 13.3333 31.9987 13.3333C32.7059 13.3333 33.3842 13.6143 33.8843 14.1144C34.3844 14.6145 34.6654 15.2927 34.6654 16Z" fill="#F96464"/>
<path id="Vector_3" opacity="0.5" d="M5.33203 23.3333C4.8016 23.3333 4.29289 23.544 3.91782 23.9191C3.54274 24.2942 3.33203 24.8029 3.33203 25.3333C3.33203 25.8637 3.54274 26.3725 3.91782 26.7475C4.29289 27.1226 4.8016 27.3333 5.33203 27.3333V23.3333ZM58.6654 27.3333C59.1958 27.3333 59.7045 27.1226 60.0796 26.7475C60.4547 26.3725 60.6654 25.8637 60.6654 25.3333C60.6654 24.8029 60.4547 24.2942 60.0796 23.9191C59.7045 23.544 59.1958 23.3333 58.6654 23.3333V27.3333ZM21.9987 56C21.9987 56.5304 22.2094 57.0391 22.5845 57.4142C22.9596 57.7893 23.4683 58 23.9987 58C24.5291 58 25.0378 57.7893 25.4129 57.4142C25.788 57.0391 25.9987 56.5304 25.9987 56H21.9987ZM25.9987 26.6666C25.9987 26.1362 25.788 25.6275 25.4129 25.2524C25.0378 24.8774 24.5291 24.6666 23.9987 24.6666C23.4683 24.6666 22.9596 24.8774 22.5845 25.2524C22.2094 25.6275 21.9987 26.1362 21.9987 26.6666H25.9987ZM5.33203 27.3333H58.6654V23.3333H5.33203V27.3333ZM25.9987 56V26.6666H21.9987V56H25.9987Z" fill="#F96464"/>
</g>
</g>
</svg>
